<svg xmlns="http://www.w3.org/2000/svg" width="487.492" height="243.488" viewBox="0 0 487.492 243.488"><g transform="translate(0 0)"><path d="M213,205.26a102.463,102.463,0,0,0-38.643,7.495c-.494.2-.991.406-1.487.614A102.861,102.861,0,0,0,110,308.26V420.652a4.482,4.482,0,0,0,4.477,4.477l.089.008c86.29,15.67,170.178,23.611,249.4,23.611q1.782,0,3.56-.005c77.877-.237,153.706-8.178,225.382-23.6l.1-.011a4.482,4.482,0,0,0,4.477-4.477V209.737a4.482,4.482,0,0,0-4.477-4.477Z" transform="translate(-110 -205.26)" fill="#5dd98a" opacity="0.469"/><path d="M852.811,385.452a2.958,2.958,0,1,0,0,5.916h74.161a2.958,2.958,0,0,0,.1-5.916H852.811Z" transform="translate(-481.82 -295.817)" fill="#3f3d56"/><path d="M1034.406,383.625a.582.582,0,0,0,0,.823l2.5,2.5h-6.161a.582.582,0,0,0,0,1.164h6.161l-2.5,2.5a.582.582,0,0,0,.823.823l3.492-3.492a.582.582,0,0,0,0-.823l-3.492-3.492A.582.582,0,0,0,1034.406,383.625Z" transform="translate(-572.435 -294.813)" fill="#fff"/><path d="M817.4,383.625a.582.582,0,0,1,0,.823l-2.5,2.5h6.161a.582.582,0,0,1,0,1.164H814.9l2.5,2.5a.582.582,0,1,1-.823.823l-3.492-3.492a.582.582,0,0,1,0-.823l3.492-3.492A.582.582,0,0,1,817.4,383.625Z" transform="translate(-463.254 -294.813)" fill="#fff"/><g transform="translate(370.807 21.887)" opacity="0.4"><circle cx="3.179" cy="3.179" r="3.179" fill="#fff"/><circle cx="3.179" cy="3.179" r="3.179" transform="translate(13.244)" fill="#fff"/><circle cx="3.179" cy="3.179" r="3.179" transform="translate(26.488)" fill="#fff"/><circle cx="3.179" cy="3.179" r="3.179" transform="translate(39.732)" fill="#fff"/><circle cx="3.179" cy="3.179" r="3.179" transform="translate(52.977)" fill="#fff"/><circle cx="3.179" cy="3.179" r="3.179" transform="translate(66.221)" fill="#fff"/><circle cx="3.179" cy="3.179" r="3.179" transform="translate(79.465)" fill="#fff"/><circle cx="3.179" cy="3.179" r="3.179" transform="translate(0 10.066)" fill="#fff"/><circle cx="3.179" cy="3.179" r="3.179" transform="translate(13.244 10.066)" fill="#fff"/><circle cx="3.179" cy="3.179" r="3.179" transform="translate(26.488 10.066)" fill="#fff"/><circle cx="3.179" cy="3.179" r="3.179" transform="translate(39.732 10.066)" fill="#fff"/><circle cx="3.179" cy="3.179" r="3.179" transform="translate(52.977 10.066)" fill="#fff"/><circle cx="3.179" cy="3.179" r="3.179" transform="translate(66.221 10.066)" fill="#fff"/><circle cx="3.179" cy="3.179" r="3.179" transform="translate(79.465 10.066)" fill="#fff"/><circle cx="3.179" cy="3.179" r="3.179" transform="translate(0 20.131)" fill="#fff"/><circle cx="3.179" cy="3.179" r="3.179" transform="translate(13.244 20.131)" fill="#fff"/><circle cx="3.179" cy="3.179" r="3.179" transform="translate(26.488 20.131)" fill="#fff"/><circle cx="3.179" cy="3.179" r="3.179" transform="translate(39.732 20.131)" fill="#fff"/><circle cx="3.179" cy="3.179" r="3.179" transform="translate(52.977 20.131)" fill="#fff"/><circle cx="3.179" cy="3.179" r="3.179" transform="translate(66.221 20.131)" fill="#fff"/><circle cx="3.179" cy="3.179" r="3.179" transform="translate(79.465 20.131)" fill="#fff"/><circle cx="3.179" cy="3.179" r="3.179" transform="translate(0 30.197)" fill="#fff"/><circle cx="3.179" cy="3.179" r="3.179" transform="translate(13.244 30.197)" fill="#fff"/><circle cx="3.179" cy="3.179" r="3.179" transform="translate(0 40.262)" fill="#fff"/><circle cx="3.179" cy="3.179" r="3.179" transform="translate(13.244 40.262)" fill="#fff"/><circle cx="3.179" cy="3.179" r="3.179" transform="translate(26.488 40.262)" fill="#fff"/><circle cx="3.179" cy="3.179" r="3.179" transform="translate(26.488 30.197)" fill="#fff"/><circle cx="3.179" cy="3.179" r="3.179" transform="translate(39.732 30.197)" fill="#fff"/><circle cx="3.179" cy="3.179" r="3.179" transform="translate(52.977 30.197)" fill="#fff"/><circle cx="3.179" cy="3.179" r="3.179" transform="translate(66.221 30.197)" fill="#fff"/><circle cx="3.179" cy="3.179" r="3.179" transform="translate(79.465 30.197)" fill="#fff"/></g><path d="M752.431,545.266a17.546,17.546,0,1,1,17.546-17.546A17.546,17.546,0,0,1,752.431,545.266Zm0-34.1a16.551,16.551,0,1,0,16.551,16.551A16.551,16.551,0,0,0,752.431,511.169Z" transform="translate(-424.042 -358.497)" fill="#3f3d56"/><path d="M768.389,535.269h-5.045v-5.045a1.682,1.682,0,1,0-3.363,0v5.045h-5.045a1.682,1.682,0,0,0,0,3.363h5.045v5.045a1.682,1.682,0,1,0,3.363,0v-5.045h5.045a1.682,1.682,0,1,0,0-3.363Z" transform="translate(-433.273 -367.728)" fill="#fff"/><g transform="translate(24.375 121.447)" opacity="0.4"><circle cx="2.499" cy="2.499" r="2.499" transform="translate(0 62.477)" fill="#fff"/><circle cx="2.499" cy="2.499" r="2.499" transform="translate(0 52.065)" fill="#fff"/><circle cx="2.499" cy="2.499" r="2.499" transform="translate(0 41.652)" fill="#fff"/><circle cx="2.499" cy="2.499" r="2.499" transform="translate(0 31.239)" fill="#fff"/><circle cx="2.499" cy="2.499" r="2.499" transform="translate(0 20.826)" fill="#fff"/><circle cx="2.499" cy="2.499" r="2.499" transform="translate(0 10.413)" fill="#fff"/><circle cx="2.499" cy="2.499" r="2.499" fill="#fff"/><circle cx="2.499" cy="2.499" r="2.499" transform="translate(7.914 62.477)" fill="#fff"/><circle cx="2.499" cy="2.499" r="2.499" transform="translate(7.914 52.065)" fill="#fff"/><circle cx="2.499" cy="2.499" r="2.499" transform="translate(7.914 41.652)" fill="#fff"/><circle cx="2.499" cy="2.499" r="2.499" transform="translate(7.914 31.239)" fill="#fff"/><circle cx="2.499" cy="2.499" r="2.499" transform="translate(7.914 20.826)" fill="#fff"/><circle cx="2.499" cy="2.499" r="2.499" transform="translate(7.914 10.413)" fill="#fff"/><circle cx="2.499" cy="2.499" r="2.499" transform="translate(7.914)" fill="#fff"/><circle cx="2.499" cy="2.499" r="2.499" transform="translate(15.828 62.477)" fill="#fff"/><circle cx="2.499" cy="2.499" r="2.499" transform="translate(15.828 52.065)" fill="#fff"/><circle cx="2.499" cy="2.499" r="2.499" transform="translate(15.828 41.652)" fill="#fff"/><circle cx="2.499" cy="2.499" r="2.499" transform="translate(15.828 31.239)" fill="#fff"/><circle cx="2.499" cy="2.499" r="2.499" transform="translate(15.828 20.826)" fill="#fff"/><circle cx="2.499" cy="2.499" r="2.499" transform="translate(15.828 10.413)" fill="#fff"/><circle cx="2.499" cy="2.499" r="2.499" transform="translate(15.828)" fill="#fff"/><circle cx="2.499" cy="2.499" r="2.499" transform="translate(23.741 62.477)" fill="#fff"/><circle cx="2.499" cy="2.499" r="2.499" transform="translate(23.741 52.065)" fill="#fff"/><circle cx="2.499" cy="2.499" r="2.499" transform="translate(31.655 62.477)" fill="#fff"/><circle cx="2.499" cy="2.499" r="2.499" transform="translate(31.655 52.065)" fill="#fff"/><circle cx="2.499" cy="2.499" r="2.499" transform="translate(31.655 41.652)" fill="#fff"/><circle cx="2.499" cy="2.499" r="2.499" transform="translate(23.741 41.652)" fill="#fff"/><circle cx="2.499" cy="2.499" r="2.499" transform="translate(23.741 31.239)" fill="#fff"/><circle cx="2.499" cy="2.499" r="2.499" transform="translate(23.741 20.826)" fill="#fff"/><circle cx="2.499" cy="2.499" r="2.499" transform="translate(23.741 10.413)" fill="#fff"/><circle cx="2.499" cy="2.499" r="2.499" transform="translate(23.741)" fill="#fff"/></g><path d="M436.576,238.262H270.559a3.078,3.078,0,0,0-3.075,3.075V383.3a3.078,3.078,0,0,0,3.075,3.075H436.576a3.078,3.078,0,0,0,3.075-3.075V241.337A3.078,3.078,0,0,0,436.576,238.262ZM438.419,383.3a1.849,1.849,0,0,1-1.843,1.849H270.559a1.846,1.846,0,0,1-1.843-1.849V241.337a1.846,1.846,0,0,1,1.843-1.849H436.576a1.85,1.85,0,0,1,1.843,1.849Z" transform="translate(-189.145 -221.845)" fill="#3f3d56"/><path d="M325.4,472.614c0,.219-.006.438-.017.651a12.523,12.523,0,0,1-25.012,0c-.012-.213-.017-.432-.017-.651a12.523,12.523,0,0,1,25.046,0Z" transform="translate(-205.663 -333.328)" fill="#fff"/><path d="M479.954,468.479h-98.4a2.088,2.088,0,0,0,0,4.175h98.4a2.088,2.088,0,1,0,0-4.175Z" transform="translate(-245.423 -337.543)" fill="#3f3d56"/><path d="M423.9,493.66H381.557a2.085,2.085,0,1,0,0,4.17H423.9a2.085,2.085,0,1,0,0-4.17Z" transform="translate(-245.426 -350.198)" fill="#fff"/><path d="M514.678,356.642H348.662a4.258,4.258,0,0,1-4.253-4.253V279.533a4.258,4.258,0,0,1,4.253-4.253H514.678a4.258,4.258,0,0,1,4.253,4.253v72.856A4.258,4.258,0,0,1,514.678,356.642Zm-166.016-79.87a2.763,2.763,0,0,0-2.76,2.76v72.856a2.764,2.764,0,0,0,2.76,2.761H514.678a2.764,2.764,0,0,0,2.76-2.761V279.533a2.763,2.763,0,0,0-2.76-2.76Z" transform="translate(-227.804 -240.449)" fill="#fff"/><path d="M418.815,328.7a2.087,2.087,0,1,0,0,4.174h98.4a2.087,2.087,0,1,0,0-4.174Z" transform="translate(-264.149 -267.296)" fill="#fff"/><path d="M418.815,353.012a2.087,2.087,0,1,0,0,4.174h98.4a2.087,2.087,0,1,0,0-4.174Z" transform="translate(-264.149 -279.514)" fill="#fff"/><path d="M418.815,377.029a2.087,2.087,0,0,0,0,4.174h42.341a2.087,2.087,0,0,0,0-4.174Z" transform="translate(-264.149 -291.584)" fill="#fff"/><path d="M721.409,475.085l-16.674-23.533,5.4,1.125a.747.747,0,0,0,.3-1.462l-8.044-1.675-1.086,8.143a.747.747,0,0,0,1.48.2l.728-5.468,16.676,23.535a.746.746,0,1,0,1.217-.863Z" transform="translate(-407.163 -328.026)" fill="#fff"/><path d="M437.71,604.444H319.191A2.2,2.2,0,0,1,317,602.249v-29.4a2.2,2.2,0,0,1,2.195-2.195H437.71a2.2,2.2,0,0,1,2.195,2.195v29.4A2.2,2.2,0,0,1,437.71,604.444ZM319.191,571.532a1.318,1.318,0,0,0-1.317,1.317v29.4a1.318,1.318,0,0,0,1.317,1.317H437.71a1.318,1.318,0,0,0,1.317-1.317v-29.4a1.318,1.318,0,0,0-1.317-1.317Z" transform="translate(-214.028 -388.892)" fill="#3f3d56"/><circle cx="8.94" cy="8.94" r="8.94" transform="translate(114.638 188.588)" fill="#fff"/><path d="M398.432,590.368a1.49,1.49,0,0,0,0,2.98h70.246a1.49,1.49,0,1,0,0-2.98Z" transform="translate(-254.205 -398.799)" fill="#fff"/><path d="M398.432,608.341a1.49,1.49,0,0,0,0,2.98h30.227a1.49,1.49,0,1,0,0-2.98Z" transform="translate(-254.205 -407.832)" fill="#fff"/><path d="M871.807,428.016h52.675a2.2,2.2,0,0,1,2.195,2.195v54.859a2.2,2.2,0,0,1-2.195,2.195H871.807a2.2,2.2,0,0,1-2.195-2.195V430.21A2.2,2.2,0,0,1,871.807,428.016Zm52.675,58.371a1.318,1.318,0,0,0,1.317-1.317V430.21a1.318,1.318,0,0,0-1.317-1.317H871.807a1.318,1.318,0,0,0-1.317,1.317v54.859a1.318,1.318,0,0,0,1.317,1.317Z" transform="translate(-491.75 -317.208)" fill="#3f3d56"/><path d="M925.31,521.369a1.49,1.49,0,1,0,0-2.98H895.083a1.49,1.49,0,1,0,0,2.98Z" transform="translate(-503.801 -362.626)" fill="#fff"/><path d="M925.31,503.721a1.49,1.49,0,0,0,0-2.98H895.083a1.49,1.49,0,1,0,0,2.98Z" transform="translate(-503.801 -353.756)" fill="#fff"/><path d="M917.495,450.758a9.379,9.379,0,1,1-9.379,9.379A9.379,9.379,0,0,1,917.495,450.758Z" transform="translate(-511.1 -328.637)" fill="#fff"/></g></svg>