<svg xmlns="http://www.w3.org/2000/svg" width="47.437" height="43.489" viewBox="0 0 47.437 43.489"><path d="M40.842,20.822c3.833,2,6.5,5.532,6.5,9.8a10.185,10.185,0,0,1-2.366,6.5c-.063,2.116,1.183,5.154,2.305,7.364-3.01-.545-7.287-1.744-9.225-2.933a19.914,19.914,0,0,1-4.695.581c-5.746,0-10.207-2.752-12.358-6.439,12.652-.407,19.327-8.823,19.843-14.874ZM19.586,1C9.188,1-.1,7.932-.1,17.416a14.462,14.462,0,0,0,3.356,9.226c.091,3-1.675,7.309-3.268,10.447,4.268-.772,10.337-2.474,13.087-4.161,15.15,3.687,26.2-5.585,26.2-15.512C39.271,7.881,29.919,1,19.586,1Zm6,21.142a.794.794,0,0,1-1.006-.5,11.084,11.084,0,0,0-6.441.173l2.3,3.571a.64.64,0,0,1-.323.965l-1.563.518-.329.055a1.044,1.044,0,0,1-.78-.352l-3.158-3.484a3.431,3.431,0,0,1-4.315-1.7,3.107,3.107,0,0,1-.224-1.165A3.37,3.37,0,0,1,11.787,17.2c7.006-3.439,8.126-7.276,8.126-7.276a.794.794,0,1,1,1.506-.5l4.667,11.717a.8.8,0,0,1-.5,1.006Zm3.321-4.022L27.7,17.605a5.3,5.3,0,0,0-2.809-6.937L25.4,9.458a6.614,6.614,0,0,1,3.506,8.662Zm-2.093-.888-1.179-.5a3.049,3.049,0,0,0-1.618-3.992l.5-1.183a4.336,4.336,0,0,1,2.3,5.675Z" transform="translate(0.099 -0.999)" fill="#ecfffb" fill-rule="evenodd"/></svg>