<svg xmlns="http://www.w3.org/2000/svg" xmlns:xlink="http://www.w3.org/1999/xlink" width="66.697" height="66.697" viewBox="0 0 66.697 66.697"><defs><filter id="a" x="0" y="0" width="66.697" height="66.697" filterUnits="userSpaceOnUse"><feOffset dy="3" input="SourceAlpha"/><feGaussianBlur stdDeviation="3" result="b"/><feFlood flood-opacity="0.161"/><feComposite operator="in" in2="b"/><feComposite in="SourceGraphic"/></filter></defs><g transform="matrix(1, 0, 0, 1, 0, 0)" filter="url(#a)"><path d="M0,2.25v48.7H48.7V2.25ZM26.5,40.229c0,4.739-2.783,6.9-6.837,6.9a7.109,7.109,0,0,1-6.87-4.185l3.728-2.25c.717,1.272,1.37,2.348,2.946,2.348,1.5,0,2.457-.587,2.457-2.881V24.609H26.5Zm10.826,6.9c-4.25,0-7-2.022-8.337-4.674l3.728-2.152a4.994,4.994,0,0,0,4.511,2.783c1.891,0,3.109-.946,3.109-2.261,0-1.565-1.239-2.12-3.337-3.044l-1.141-.489c-3.3-1.4-5.489-3.174-5.489-6.9,0-3.435,2.62-6.044,6.7-6.044a6.74,6.74,0,0,1,6.5,3.663L40,30.294a3.112,3.112,0,0,0-2.946-1.957,1.986,1.986,0,0,0-2.185,1.957c0,1.37.848,1.924,2.815,2.783l1.141.489c3.891,1.663,6.076,3.37,6.076,7.2,0,4.109-3.239,6.37-7.576,6.37Z" transform="translate(9 3.75)" fill="#131919"/></g></svg>