<svg xmlns="http://www.w3.org/2000/svg" xmlns:xlink="http://www.w3.org/1999/xlink" width="61.89" height="61.88" viewBox="0 0 61.89 61.88"><defs><filter id="a" x="0" y="0" width="61.89" height="61.88" filterUnits="userSpaceOnUse"><feOffset dy="3" input="SourceAlpha"/><feGaussianBlur stdDeviation="3" result="b"/><feFlood flood-opacity="0.161"/><feComposite operator="in" in2="b"/><feComposite in="SourceGraphic"/></filter></defs><g transform="matrix(1, 0, 0, 1, 0, 0)" filter="url(#a)"><path d="M21.945,12.927a11.25,11.25,0,1,0,11.25,11.25A11.232,11.232,0,0,0,21.945,12.927Zm0,18.564a7.314,7.314,0,1,1,7.314-7.314A7.327,7.327,0,0,1,21.945,31.492ZM36.279,12.467a2.624,2.624,0,1,1-2.624-2.624A2.618,2.618,0,0,1,36.279,12.467ZM43.73,15.13c-.166-3.515-.969-6.629-3.544-9.194s-5.679-3.368-9.194-3.544c-3.623-.206-14.481-.206-18.1,0-3.505.166-6.619.969-9.194,3.535S.325,11.606.149,15.121c-.206,3.623-.206,14.481,0,18.1.166,3.515.969,6.629,3.544,9.194s5.679,3.368,9.194,3.544c3.623.206,14.481.206,18.1,0,3.515-.166,6.629-.969,9.194-3.544s3.368-5.679,3.544-9.194c.206-3.623.206-14.472,0-18.094ZM39.05,37.112a7.4,7.4,0,0,1-4.171,4.171c-2.888,1.146-9.742.881-12.934.881s-10.056.255-12.934-.881a7.4,7.4,0,0,1-4.171-4.171c-1.146-2.888-.881-9.742-.881-12.934S3.7,14.122,4.839,11.243A7.4,7.4,0,0,1,9.01,7.072c2.888-1.146,9.742-.881,12.934-.881S32,5.936,34.879,7.072a7.4,7.4,0,0,1,4.171,4.171c1.146,2.888.881,9.742.881,12.934S40.2,34.233,39.05,37.112Z" transform="translate(9.01 3.76)" fill="#fff"/></g></svg>