<svg xmlns="http://www.w3.org/2000/svg" width="36" height="35.1" viewBox="0 0 36 35.1"><path d="M0,.45v35.1H36V.45Zm1.5,1.5h33v32.1H1.5ZM12.488,20.325l-1.188,4.5c-.026.125-.075.153-.222.153h-2.2c-.15,0-.172-.049-.15-.222l4.26-14.917a4.627,4.627,0,0,0,.147-1.25c0-.1.05-.15.125-.15H16.4c.1,0,.15.027.174.15l4.778,16.191c.025.125,0,.2-.125.2H18.753c-.125,0-.2-.03-.222-.129l-1.237-4.522H12.483Zm4.182-2.437c-.42-1.659-1.41-5.292-1.782-7.05h-.026c-.321,1.755-1.113,4.725-1.733,7.05Zm6.75-8.337a1.535,1.535,0,1,1,3.069,0,1.437,1.437,0,0,1-1.56,1.535,1.41,1.41,0,0,1-1.515-1.535Zm.168,3.411c0-.12.049-.165.174-.165h2.355c.132,0,.18.05.18.174V24.813c0,.125-.024.174-.173.174H23.8c-.15,0-.2-.075-.2-.195V12.96Z" transform="translate(0 -0.45)"/></svg>