<svg xmlns="http://www.w3.org/2000/svg" width="45.416" height="45.416" viewBox="0 0 45.416 45.416"><path d="M19.8,22.3,30.636,3.545A23.4,23.4,0,0,0,25.708,3,22.672,22.672,0,0,0,11.357,8.109l8.311,14.42ZM47.371,18.9A22.764,22.764,0,0,0,33.747,4.5L25.435,18.9H47.371Zm.59,2.271H30.954l.659,1.135L42.421,41.036a22.5,22.5,0,0,0,5.995-15.328A22.989,22.989,0,0,0,47.962,21.166ZM17.851,25.708,8.995,10.38A22.612,22.612,0,0,0,3,25.708a22.989,22.989,0,0,0,.454,4.542H20.462l-2.611-4.542ZM4.045,32.52a22.765,22.765,0,0,0,13.625,14.4l8.311-14.4H4.045Zm25.592,0L20.78,47.871a23.4,23.4,0,0,0,4.928.545,22.672,22.672,0,0,0,14.351-5.109l-8.311-14.42L29.636,32.52Z" transform="translate(-3 -3)" fill="#fff"/></svg>