<svg xmlns="http://www.w3.org/2000/svg" xmlns:xlink="http://www.w3.org/1999/xlink" width="73.654" height="66.7" viewBox="0 0 73.654 66.7"><defs><filter id="a" x="0" y="0" width="73.654" height="66.7" filterUnits="userSpaceOnUse"><feOffset dy="3" input="SourceAlpha"/><feGaussianBlur stdDeviation="3" result="b"/><feFlood flood-opacity="0.161"/><feComposite operator="in" in2="b"/><feComposite in="SourceGraphic"/></filter></defs><g transform="matrix(1, 0, 0, 1, 0, 0)" filter="url(#a)"><path d="M45.458,18.033q-.88-.293-1.761-.554c.1-.4.185-.8.272-1.207,1.337-6.478.457-11.685-2.511-13.4-2.859-1.641-7.522.065-12.24,4.174-.467.4-.924.826-1.359,1.25-.293-.283-.6-.565-.9-.837-4.946-4.391-9.9-6.239-12.87-4.511-2.848,1.652-3.7,6.555-2.5,12.685.12.609.25,1.207.4,1.815-.7.2-1.38.413-2.022.641C4.163,20.1,0,23.272,0,26.555c0,3.391,4.435,6.794,10.468,8.859.489.163.978.326,1.478.467-.163.652-.3,1.294-.435,1.957-1.141,6.033-.25,10.816,2.6,12.457,2.935,1.7,7.87-.043,12.674-4.25.38-.337.761-.685,1.141-1.054.478.467.978.913,1.478,1.348,4.652,4,9.25,5.62,12.087,3.978,2.935-1.7,3.891-6.837,2.652-13.1Q44,36.5,43.817,35.751c.348-.1.685-.207,1.022-.315C51.11,33.359,55.654,30,55.654,26.555c0-3.294-4.283-6.489-10.2-8.522ZM30.751,8.8c4.044-3.522,7.815-4.9,9.533-3.913,1.837,1.054,2.544,5.315,1.391,10.913-.076.37-.152.728-.25,1.087a55.646,55.646,0,0,0-7.315-1.152,54.92,54.92,0,0,0-4.631-5.772c.424-.4.837-.783,1.272-1.163ZM18.174,32.2c.554.946,1.12,1.891,1.717,2.815a49.222,49.222,0,0,1-5.044-.815,50.778,50.778,0,0,1,1.772-4.837c.5.957,1.011,1.9,1.554,2.837ZM14.881,19.12c1.565-.348,3.228-.63,4.957-.848-.576.9-1.141,1.826-1.674,2.761s-1.054,1.87-1.544,2.826c-.685-1.62-1.261-3.207-1.739-4.739Zm2.978,7.489c.717-1.5,1.5-2.967,2.326-4.413s1.717-2.848,2.652-4.228c1.63-.12,3.294-.185,4.989-.185s3.37.065,4.989.185q1.386,2.054,2.641,4.207t2.359,4.391Q36.724,28.816,35.468,31c-.826,1.446-1.707,2.848-2.631,4.239-1.62.12-3.3.174-5.011.174s-3.359-.054-4.957-.152q-1.419-2.071-2.674-4.239c-.837-1.446-1.609-2.913-2.337-4.413ZM37.49,32.174c.554-.957,1.076-1.924,1.587-2.9a50.459,50.459,0,0,1,1.837,4.815,47.745,47.745,0,0,1-5.109.87C36.392,34.044,36.947,33.109,37.49,32.174Zm1.565-8.315c-.511-.957-1.033-1.913-1.576-2.848s-1.087-1.837-1.663-2.739a50.021,50.021,0,0,1,4.989.87,48.106,48.106,0,0,1-1.75,4.718ZM27.849,11.63a47.732,47.732,0,0,1,3.217,3.891c-2.152-.1-4.315-.1-6.468,0C25.664,14.119,26.762,12.815,27.849,11.63ZM15.24,4.967c1.826-1.065,5.881.457,10.152,4.239.272.239.543.5.826.761a55.225,55.225,0,0,0-4.663,5.772,57.3,57.3,0,0,0-7.3,1.13c-.141-.554-.261-1.12-.38-1.685-1.022-5.261-.348-9.229,1.37-10.218ZM12.576,33.62c-.457-.13-.9-.272-1.348-.424A22.17,22.17,0,0,1,4.381,29.8a4.877,4.877,0,0,1-2.044-3.25c0-1.989,3.435-4.533,8.392-6.261.62-.217,1.25-.413,1.88-.6a57.8,57.8,0,0,0,2.663,6.913A59.417,59.417,0,0,0,12.576,33.62ZM25.251,44.273A19.9,19.9,0,0,1,19.12,48.11a4.811,4.811,0,0,1-3.837.141c-1.728-1-2.446-4.837-1.467-10,.12-.609.25-1.217.4-1.815A54.379,54.379,0,0,0,21.6,37.5a57.363,57.363,0,0,0,4.7,5.8C25.946,43.642,25.6,43.968,25.251,44.273Zm2.663-2.641c-1.109-1.2-2.217-2.522-3.294-3.946,1.044.043,2.12.065,3.207.065,1.12,0,2.217-.022,3.3-.076a46.876,46.876,0,0,1-3.217,3.957Zm14.207,3.261a4.831,4.831,0,0,1-1.794,3.4c-1.728,1-5.413-.3-9.392-3.718-.457-.391-.913-.815-1.38-1.25A53.772,53.772,0,0,0,34.142,37.5a53.585,53.585,0,0,0,7.413-1.141c.109.446.207.891.293,1.326a19.815,19.815,0,0,1,.272,7.207ZM44.1,33.207c-.3.1-.609.2-.924.283A55.218,55.218,0,0,0,40.4,26.555a54.943,54.943,0,0,0,2.663-6.837c.565.163,1.109.337,1.63.511,5.065,1.739,8.62,4.326,8.62,6.3,0,2.131-3.794,4.881-9.218,6.674Zm-16.272-1.63A4.978,4.978,0,1,0,22.849,26.6,4.978,4.978,0,0,0,27.827,31.577Z" transform="translate(9 3.75)" fill="#fff"/></g></svg>