<svg xmlns="http://www.w3.org/2000/svg" width="46.315" height="42.104" viewBox="0 0 46.315 42.104"><path d="M47.315,20.581v4.945A6.351,6.351,0,0,0,41,31.54C41,36.132,43.7,44.1,28.368,44.1V39.89c10.351,0,8.349-3.368,8.349-8.351a9.391,9.391,0,0,1,4.8-8.486c-2.246-1.118-4.8-3.027-4.8-6.972,0-4.994,1.979-9.878-8.349-9.865V2C43.7,2,41,11.486,41,16.08c0,3.25,3.027,4.5,6.316,4.5Zm-40-4.5C7.316,11.486,4.61,2,19.947,2V6.215C9.619,6.2,11.6,11.084,11.6,16.08c0,3.947-2.549,5.855-4.8,6.972a9.394,9.394,0,0,1,4.8,8.486c0,4.983-2,8.351,8.349,8.351V44.1C4.619,44.1,7.316,36.132,7.316,31.538A6.351,6.351,0,0,0,1,25.524V20.579c3.288,0,6.316-1.248,6.316-4.5Z" transform="translate(-1 -2)" fill="#ecfffb"/></svg>