<svg xmlns="http://www.w3.org/2000/svg" xmlns:xlink="http://www.w3.org/1999/xlink" width="54" height="54" viewBox="0 0 54 54"><defs><filter id="a" x="0" y="0" width="54" height="54" filterUnits="userSpaceOnUse"><feOffset dy="3" input="SourceAlpha"/><feGaussianBlur stdDeviation="3" result="b"/><feFlood flood-opacity="0.161"/><feComposite operator="in" in2="b"/><feComposite in="SourceGraphic"/></filter></defs><g transform="matrix(1, 0, 0, 1, 0, 0)" filter="url(#a)"><path d="M37.83,30.682,21.639,16.8A10.13,10.13,0,0,0,9.755,2.362l5.85,5.85a2.257,2.257,0,0,1,0,3.182l-3.568,3.568a2.257,2.257,0,0,1-3.182,0l-5.85-5.85A10.128,10.128,0,0,0,17.446,21L31.324,37.187a2.057,2.057,0,0,0,3.055.117l3.568-3.568a2.056,2.056,0,0,0-.117-3.055Z" transform="translate(6.43 4.07)" fill="#ecfffb"/></g></svg>