<svg xmlns="http://www.w3.org/2000/svg" width="44.047" height="33.035" viewBox="0 0 44.047 33.035"><g transform="translate(-4.5 -7.875)"><path d="M27.148,21.889a6.6,6.6,0,1,1-6.6-6.6A6.6,6.6,0,0,1,27.148,21.889Z" transform="translate(5.971 4.683)" fill="#ecfffb"/><path d="M45.048,13.381H38.8a1.862,1.862,0,0,1-1.376-.619C34.163,9.114,32.935,7.875,31.6,7.875H21.8c-1.342,0-2.661,1.239-5.93,4.9a1.826,1.826,0,0,1-1.365.608h-.47v-.918a.92.92,0,0,0-.918-.918H10.132a.92.92,0,0,0-.918.918v.918h-.86A3.72,3.72,0,0,0,4.5,16.9V37.09a3.971,3.971,0,0,0,3.843,3.82H45.048a3.677,3.677,0,0,0,3.5-3.82V16.9A3.419,3.419,0,0,0,45.048,13.381ZM26.982,36.368a9.807,9.807,0,1,1,9.337-9.337A9.816,9.816,0,0,1,26.982,36.368ZM37.535,20.034a1.491,1.491,0,1,1,1.491-1.491A1.488,1.488,0,0,1,37.535,20.034Z" transform="translate(0 0)" fill="#ecfffb"/></g></svg>