<svg xmlns="http://www.w3.org/2000/svg" width="36" height="35.1" viewBox="0 0 36 35.1"><path d="M0,.45v35.1H36V.45Zm1.5,1.5h33v32.1H1.5ZM8.7,8.67c0-.1.21-.174.336-.174.966-.05,2.382-.075,3.867-.075,4.158,0,5.775,2.28,5.775,5.2,0,3.81-2.763,5.445-6.153,5.445-.57,0-.765-.025-1.163-.025V24.8c0,.125-.05.174-.172.174H8.874c-.125,0-.172-.045-.172-.17V8.67Zm2.662,7.968c.345.024.618.024,1.215.024,1.755,0,3.4-.618,3.4-2.994,0-1.9-1.179-2.871-3.183-2.871-.594,0-1.163.024-1.436.05v5.8Zm12.91-1.782c-1.188,0-1.584.594-1.584,1.089,0,.544.27.915,1.855,1.732,2.352,1.14,3.093,2.227,3.093,3.836,0,2.4-1.83,3.69-4.305,3.69a6.554,6.554,0,0,1-3.075-.645c-.1-.049-.12-.123-.12-.247v-2.2c0-.15.072-.2.171-.126a5.526,5.526,0,0,0,3.018.891c1.188,0,1.683-.5,1.683-1.164,0-.545-.345-1.015-1.855-1.808-2.13-1.02-3.021-2.055-3.021-3.791,0-1.931,1.509-3.54,4.132-3.54a6.991,6.991,0,0,1,2.691.42.327.327,0,0,1,.15.3v2.055c0,.125-.075.2-.225.15a5.372,5.372,0,0,0-2.615-.645Z" transform="translate(0 -0.45)"/></svg>