<svg xmlns="http://www.w3.org/2000/svg" xmlns:xlink="http://www.w3.org/1999/xlink" width="61.881" height="61.88" viewBox="0 0 61.881 61.88"><defs><filter id="a" x="0" y="0" width="61.881" height="61.88" filterUnits="userSpaceOnUse"><feOffset dy="3" input="SourceAlpha"/><feGaussianBlur stdDeviation="3" result="b"/><feFlood flood-opacity="0.161"/><feComposite operator="in" in2="b"/><feComposite in="SourceGraphic"/></filter></defs><g transform="matrix(1, 0, 0, 1, 0, 0)" filter="url(#a)"><path d="M9.822,43.881H.725v-29.3h9.1ZM5.269,10.588a5.294,5.294,0,1,1,5.269-5.319A5.313,5.313,0,0,1,5.269,10.588Zm38.6,33.293H34.793V29.619c0-3.4-.069-7.758-4.73-7.758-4.73,0-5.455,3.693-5.455,7.513V43.881H15.521v-29.3h8.725v4h.127a9.559,9.559,0,0,1,8.608-4.731c9.207,0,10.9,6.063,10.9,13.938V43.881Z" transform="translate(9 6)" fill="#fff"/></g></svg>