<svg xmlns="http://www.w3.org/2000/svg" xmlns:xlink="http://www.w3.org/1999/xlink" width="66.699" height="66.699" viewBox="0 0 66.699 66.699"><defs><filter id="a" x="0" y="0" width="66.699" height="66.699" filterUnits="userSpaceOnUse"><feOffset dy="3" input="SourceAlpha"/><feGaussianBlur stdDeviation="3" result="b"/><feFlood flood-opacity="0.161"/><feComposite operator="in" in2="b"/><feComposite in="SourceGraphic"/></filter></defs><g transform="matrix(1, 0, 0, 1, 0, 0)" filter="url(#a)"><path d="M47.806,20.566c-.837-3.359-2.424-5.891-5.8-5.891H37.642v5.152a7.455,7.455,0,0,1-7.261,7.37H18.772a5.924,5.924,0,0,0-5.8,5.9V44.164c0,3.152,2.739,5,5.8,5.9a19.533,19.533,0,0,0,11.609,0c2.924-.848,5.8-2.554,5.8-5.9V39.74h-11.6V38.262H42c3.381,0,4.631-2.359,5.8-5.891,1.217-3.641,1.163-7.142,0-11.8Zm-16.7,22.12a2.212,2.212,0,1,1-2.185,2.207A2.2,2.2,0,0,1,31.11,42.686ZM18.24,25.74H29.849a5.853,5.853,0,0,0,5.8-5.9V8.761c0-3.152-2.652-5.511-5.8-6.044a35.83,35.83,0,0,0-11.609.011c-4.913.87-5.8,2.685-5.8,6.044V13.2h11.62v1.478H8.076A7.257,7.257,0,0,0,.815,20.566a21.771,21.771,0,0,0,0,11.8c.826,3.435,2.794,5.891,6.174,5.891h3.989v-5.3A7.381,7.381,0,0,1,18.24,25.74Zm-.728-15.5A2.212,2.212,0,1,1,19.7,8.033a2.2,2.2,0,0,1-2.185,2.207Z" transform="translate(9 3.75)" fill="#fff"/></g></svg>