<svg xmlns="http://www.w3.org/2000/svg" width="49.949" height="48.7" viewBox="0 0 49.949 48.7"><path d="M41.1.45H8.845A8.838,8.838,0,0,0,0,9.3V40.3A8.838,8.838,0,0,0,8.845,49.15H41.1A8.838,8.838,0,0,0,49.949,40.3V9.3A8.838,8.838,0,0,0,41.1.45Zm6.743,39.043a7.54,7.54,0,0,1-7.534,7.576H9.636a7.568,7.568,0,0,1-7.555-7.555V10.086A7.568,7.568,0,0,1,9.636,2.531H40.292a7.555,7.555,0,0,1,7.555,7.555Zm-28.1-16.254,5.827,11.2c.1.166.042.333-.125.333H21.832a.408.408,0,0,1-.437-.271c-1.332-2.747-2.685-5.494-4.079-8.45h-.042c-1.249,2.789-2.622,5.723-3.954,8.47a.4.4,0,0,1-.375.229H9.511c-.208,0-.229-.166-.125-.291l5.7-10.864L9.574,12.6a.168.168,0,0,1,.125-.291h3.58a.328.328,0,0,1,.375.229c1.311,2.747,2.643,5.578,3.892,8.346h.042c1.207-2.747,2.539-5.6,3.829-8.325.1-.166.166-.271.375-.271h3.351c.166,0,.229.125.125.291ZM26.6,26.631c0-4.849,3.226-8.637,8.346-8.637a9.229,9.229,0,0,1,1.082.042V12.521a.209.209,0,0,1,.208-.208h3.288c.167,0,.208.062.208.166V31.585a14.824,14.824,0,0,0,.1,2.04c0,.125-.042.167-.166.229A12.4,12.4,0,0,1,34.34,35.06C29.824,35.081,26.6,32.292,26.6,26.631ZM36.026,21.3a3.147,3.147,0,0,0-1.207-.208c-2.622,0-4.454,2.019-4.454,5.369,0,3.829,1.873,5.369,4.225,5.369a3.926,3.926,0,0,0,1.436-.229V21.3Z" transform="translate(0 -0.45)" fill="#fff"/></svg>