<svg xmlns="http://www.w3.org/2000/svg" xmlns:xlink="http://www.w3.org/1999/xlink" width="52.875" height="52.875" viewBox="0 0 52.875 52.875"><defs><filter id="a" x="0" y="0" width="52.875" height="52.875" filterUnits="userSpaceOnUse"><feOffset dy="3" input="SourceAlpha"/><feGaussianBlur stdDeviation="3" result="b"/><feFlood flood-opacity="0.161"/><feComposite operator="in" in2="b"/><feComposite in="SourceGraphic"/></filter></defs><g transform="matrix(1, 0, 0, 1, 0, 0)" filter="url(#a)"><path d="M18,.563A17.438,17.438,0,1,0,35.438,18,17.44,17.44,0,0,0,18,.563ZM18,8.3a2.953,2.953,0,1,1-2.953,2.953A2.953,2.953,0,0,1,18,8.3Zm3.938,17.859a.844.844,0,0,1-.844.844H14.906a.844.844,0,0,1-.844-.844V24.469a.844.844,0,0,1,.844-.844h.844v-4.5h-.844a.844.844,0,0,1-.844-.844V16.594a.844.844,0,0,1,.844-.844h4.5a.844.844,0,0,1,.844.844v7.031h.844a.844.844,0,0,1,.844.844Z" transform="translate(8.44 5.44)" fill="#ecfffb"/></g></svg>