<svg xmlns="http://www.w3.org/2000/svg" xmlns:xlink="http://www.w3.org/1999/xlink" width="61.197" height="73.652" viewBox="0 0 61.197 73.652"><defs><filter id="a" x="0" y="0" width="61.197" height="73.652" filterUnits="userSpaceOnUse"><feOffset dy="3" input="SourceAlpha"/><feGaussianBlur stdDeviation="3" result="b"/><feFlood flood-opacity="0.161"/><feComposite operator="in" in2="b"/><feComposite in="SourceGraphic"/></filter></defs><g transform="matrix(1, 0, 0, 1, 0, 0)" filter="url(#a)"><path d="M23.647,0h9.1V42.123a60.058,60.058,0,0,1-11.817,1.241c-11.11,0-16.9-5.023-16.9-14.656,0-9.278,6.145-15.3,15.66-15.3a14.527,14.527,0,0,1,3.958.473Zm0,21.2a9.03,9.03,0,0,0-3.073-.473c-4.61,0-7.267,2.836-7.267,7.8,0,4.847,2.542,7.5,7.209,7.5a21,21,0,0,0,3.131-.237V21.2Zm23.579-7.149v21.1c0,7.267-.531,10.755-2.126,13.767-1.477,2.9-3.427,4.728-7.446,6.736L29.2,51.633c4.019-1.89,5.969-3.546,7.209-6.087,1.3-2.6,1.714-5.614,1.714-13.531V14.05h9.1Zm-9.1-14h9.1V9.385h-9.1Z" transform="translate(4.97 6)" fill="#fff"/></g></svg>