<svg xmlns="http://www.w3.org/2000/svg" width="35.997" height="34.139" viewBox="0 0 35.997 34.139"><path d="M24.949,24.756A2.5,2.5,0,0,0,27.2,22.125a2.59,2.59,0,0,0-2.562-2.472h-.091a2.565,2.565,0,0,0-2.472,2.653,2.738,2.738,0,0,0,.741,1.729,16.546,16.546,0,0,1-7.506,7.193,12.306,12.306,0,0,1-7.416,1.394,6.465,6.465,0,0,1-4.674-2.7,6.7,6.7,0,0,1-.382-7.1A10.6,10.6,0,0,1,5.983,19.16a14.939,14.939,0,0,1-.63-2.313C-1.3,21.612-.624,28.128,1.4,31.208c1.506,2.247,4.586,3.684,7.956,3.684a11.673,11.673,0,0,0,2.764-.291,17.584,17.584,0,0,0,12.81-9.8l.021-.046Zm8.022-5.619A18.549,18.549,0,0,0,18.521,12.8h-.765a2.419,2.419,0,0,0-2.246-1.349h-.068a2.515,2.515,0,0,0-2.47,2.63,2.59,2.59,0,0,0,2.562,2.472h.111a2.536,2.536,0,0,0,2.247-1.573h.833a17.405,17.405,0,0,1,9.732,2.988,12.32,12.32,0,0,1,4.854,5.844,6.206,6.206,0,0,1-.068,5.4,6.681,6.681,0,0,1-6.292,3.775,11.732,11.732,0,0,1-4.451-.966c-.538.447-1.438,1.189-2.091,1.639a14.43,14.43,0,0,0,5.91,1.415A10.034,10.034,0,0,0,35.2,30.216c1.347-2.7,1.236-7.236-2.2-11.124ZM9.735,25.563A2.587,2.587,0,0,0,12.3,28.035h.09a2.562,2.562,0,0,0-.068-5.123h-.092a.967.967,0,0,0-.337.044A16.786,16.786,0,0,1,9.533,12.8a12.2,12.2,0,0,1,2.7-7.1,7.988,7.988,0,0,1,5.619-2.562c4.854-.092,6.878,5.956,7.034,8.361l2.247.674C26.61,4.8,22.028.931,17.645.931c-4.113,0-7.91,2.99-9.439,7.372-2.089,5.844-.719,11.462,1.844,15.957a1.988,1.988,0,0,0-.314,1.3Z" transform="translate(0 -0.931)"/></svg>