<svg xmlns="http://www.w3.org/2000/svg" width="49.717" height="37.288" viewBox="0 0 49.717 37.288"><path d="M21.215,13.552a7.768,7.768,0,1,1,7.768,7.768,7.768,7.768,0,0,1-7.768-7.768Zm-18.644,0a7.768,7.768,0,1,1,7.768,7.768A7.768,7.768,0,0,1,2.571,13.552ZM39.859,29.089V24.428a3.116,3.116,0,0,0-3.107-3.107H5.678a3.116,3.116,0,0,0-3.107,3.107V39.965a3.116,3.116,0,0,0,3.107,3.107H36.751a3.116,3.116,0,0,0,3.107-3.107V35.3l12.429,7.768V21.321L39.859,29.089Zm-6.215,7.768H8.785V27.536H33.644Z" transform="translate(-2.571 -5.784)" fill="#fff"/></svg>