<svg xmlns="http://www.w3.org/2000/svg" xmlns:xlink="http://www.w3.org/1999/xlink" width="63" height="61.876" viewBox="0 0 63 61.876"><defs><filter id="a" x="0" y="0" width="63" height="61.876" filterUnits="userSpaceOnUse"><feOffset dy="3" input="SourceAlpha"/><feGaussianBlur stdDeviation="3" result="b"/><feFlood flood-opacity="0.161"/><feComposite operator="in" in2="b"/><feComposite in="SourceGraphic"/></filter></defs><g transform="matrix(1, 0, 0, 1, 0, 0)" filter="url(#a)"><path d="M15.051,35.891c0,.181-.209.327-.472.327-.3.027-.508-.118-.508-.327,0-.181.209-.327.472-.327C14.816,35.537,15.051,35.682,15.051,35.891Zm-2.822-.408c-.064.181.118.39.39.445a.426.426,0,0,0,.563-.181c.054-.181-.118-.39-.39-.472A.466.466,0,0,0,12.23,35.483Zm4.01-.154c-.263.064-.445.236-.417.445.027.181.263.3.535.236s.445-.236.417-.417S16.5,35.3,16.24,35.329ZM22.21.563A21.755,21.755,0,0,0,0,22.7,22.746,22.746,0,0,0,15.378,44.4c1.161.209,1.57-.508,1.57-1.1,0-.562-.027-3.665-.027-5.571,0,0-6.351,1.361-7.684-2.7,0,0-1.034-2.64-2.522-3.321,0,0-2.078-1.424.145-1.4a4.789,4.789,0,0,1,3.5,2.341c1.987,3.5,5.317,2.495,6.614,1.9a5.042,5.042,0,0,1,1.452-3.057c-5.072-.562-10.189-1.3-10.189-10.025a6.876,6.876,0,0,1,2.141-5.344,8.572,8.572,0,0,1,.236-6.16c1.9-.59,6.26,2.45,6.26,2.45a21.433,21.433,0,0,1,11.4,0s4.364-3.048,6.26-2.45a8.568,8.568,0,0,1,.236,6.16c1.452,1.606,2.341,2.858,2.341,5.344,0,8.755-5.344,9.454-10.415,10.025a5.365,5.365,0,0,1,1.542,4.21c0,3.057-.027,6.841-.027,7.585,0,.59.417,1.306,1.57,1.1A22.536,22.536,0,0,0,45,22.7C45,10.116,34.793.563,22.21.563ZM8.819,31.854c-.118.091-.091.3.064.472.145.145.354.209.472.091.118-.091.091-.3-.064-.472C9.145,31.8,8.936,31.736,8.819,31.854Zm-.98-.735c-.064.118.027.263.209.354a.27.27,0,0,0,.39-.064c.064-.118-.027-.263-.209-.354C8.047,31,7.9,31.028,7.839,31.119Zm2.94,3.23c-.145.118-.091.39.118.563.209.209.472.236.59.091.118-.118.064-.39-.118-.562C11.168,34.231,10.9,34.2,10.778,34.349ZM9.744,33.015c-.145.091-.145.327,0,.535s.39.3.508.209a.414.414,0,0,0,0-.562C10.125,32.988,9.889,32.9,9.744,33.015Z" transform="translate(9 5.44)" fill="#fff"/></g></svg>