<svg xmlns="http://www.w3.org/2000/svg" width="30" height="30" viewBox="0 0 30 30"><path d="M15,0A15,15,0,1,1,0,15,15,15,0,0,1,15,0Z" fill="#31363a"/><path d="M6.083,4.238,4.651,2.814,3.529,3.936,4.953,5.36Zm-2.2,4.5H1.5v1.591H3.887ZM11.048.825H9.456V3.172h1.591V.825Zm5.927,3.111L15.853,2.814,14.429,4.238,15.551,5.36l1.424-1.424Zm-2.554,10.9,1.424,1.432,1.122-1.122-1.432-1.424-1.114,1.114Zm2.2-6.095v1.591H19V8.742ZM10.252,4.763a4.774,4.774,0,1,0,4.774,4.774A4.778,4.778,0,0,0,10.252,4.763Zm-.8,13.486h1.591V15.9H9.456ZM3.529,15.138,4.651,16.26l1.424-1.432L4.953,13.706,3.529,15.138Z" transform="translate(5 5.138)" fill="#fff"/></svg>