<svg xmlns="http://www.w3.org/2000/svg" xmlns:xlink="http://www.w3.org/1999/xlink" width="890.013" height="473.642" viewBox="0 0 890.013 473.642"><defs><linearGradient id="a" x1="0.5" y1="1" x2="0.5" y2="-0.001" gradientUnits="objectBoundingBox"><stop offset="0" stop-color="gray" stop-opacity="0.251"/><stop offset="0.54" stop-color="gray" stop-opacity="0.122"/><stop offset="1" stop-color="gray" stop-opacity="0.102"/></linearGradient></defs><g transform="translate(-0.011 -0.035)"><path d="M901.15,547.467q-1.487,3.205-2.966,6.325-2.308,4.846-4.556,9.5c-.667,1.376-1.333,2.727-1.983,4.077-7.351,15.018-14.214,28.3-20.043,39.224a62.575,62.575,0,0,1-54.541,33.078l-129.62,1.41h-1.368l-11.112.12-9.5.1-29.146.316h-1.18l-14.838.162h-.453l-91.456.991-81.636.855-9.5.1-58.977.641h-.068l-38.249.41h-.41L218.6,646.1l-36.181.393a75.277,75.277,0,0,1-22.8-3.265,73.841,73.841,0,0,1-33.412-21.155A170.9,170.9,0,0,1,91.744,563.3q-1.65-4.692-3.077-9.5c-26.334-89.02,5.769-203.871,63.549-280.728q3.633-4.821,7.385-9.4l.06-.068c17.77-21.813,37.694-40.036,58.917-52.993,37.608-23,79.276-29.48,120.261-10.171,34.677,16.342,67.054,24.027,98.44,26.112,3.171.205,6.342.359,9.5.453,71.994,2.265,139.467-23.676,218.7-40.42,3.154-.667,6.317-1.325,9.5-1.949,56.523-11.248,119.227-17.18,193.793-4.71a161.617,161.617,0,0,1,22.873,5.47q4.932,1.59,9.5,3.419c35.591,14.479,55,41.232,63.25,74.755q1.171,4.667,2.026,9.5C981.05,353.691,938.22,468.071,901.15,547.467Z" transform="translate(-79.34 -172.91)" fill="#5dd98a" opacity="0.1"/><g transform="translate(9.327 11.689)" opacity="0.1"><path d="M232.217,217V652.589l-36.181.393a75.28,75.28,0,0,1-22.8-3.265V269.993h.06C191.07,248.155,210.994,229.932,232.217,217Z" transform="translate(-102.306 -190.999)" fill="#5dd98a"/><path d="M978.853,288.47H164.6q3.633-4.821,7.385-9.4V279H976.827Q978,283.641,978.853,288.47Z" transform="translate(-101.051 -200.006)" fill="#5dd98a"/><path d="M1039.2,190.923V555.894h-2.966q-2.308,4.846-4.556,9.5c-.667,1.376-1.333,2.727-1.983,4.077V187.47Q1034.632,189.06,1039.2,190.923Z" transform="translate(-226.721 -186.709)" fill="#5dd98a"/><path d="M774.595,186.58V643.221l-9.5.1V188.529C768.244,187.862,771.406,187.2,774.595,186.58Z" transform="translate(-188.282 -186.58)" fill="#5dd98a"/><path d="M507.606,236.073V652.824l-9.5.1V235.62C501.281,235.825,504.452,235.945,507.606,236.073Z" transform="translate(-149.499 -193.704)" fill="#5dd98a"/><path d="M899.767,618.52q-2.308,4.846-4.556,9.5H93.327q-1.65-4.692-3.077-9.5Z" transform="translate(-90.25 -249.327)" fill="#5dd98a"/></g><rect width="16.24" height="49.284" transform="translate(180.863 227.219)" fill="#3f3d56"/><rect width="16.24" height="52.139" transform="translate(617.913 224.654)" fill="#3f3d56"/><path d="M753.133,529.51v11.112l-129.851,1.2-1.385.026-49.352.453-1.18.017-15,.128h-.444l-91.439.846-150.1,1.393h-.128l-38.164.359-.41.009L106.1,546.6V533.784l39.873-23.933,80-.667,1.709-.009.564-.009,1.709-.026,38.412-.316,1.718-.009.547-.009,1.709-.009,12.317-.1.325-.009,30.386-.256h.248l237.1-2,5.8-.043h.581l4.428-.043,32.181-.265,1.709-.026,1.581-.017h.82l10.009-.077,1.983-.026,2.658-.017,8.334-.077,13.223-.111,1.709-.017,2.974-.017h.556l63.857-.547Z" transform="translate(-15.411 -73.377)" fill="#65617d"/><path d="M753.133,529.51v11.112l-129.851,1.2-1.385.026-49.352.453-1.18.017-15,.128h-.444l-91.439.846-150.1,1.393h-.128l-38.164.359-.41.009L106.1,546.6V533.784l39.873-23.933,80-.667,1.709-.009.564-.009,1.709-.026,38.412-.316,1.718-.009.547-.009,1.709-.009,12.317-.1.325-.009,30.386-.256h.248l237.1-2,5.8-.043h.581l4.428-.043,32.181-.265,1.709-.026,1.581-.017h.82l10.009-.077,1.983-.026,2.658-.017,8.334-.077,13.223-.111,1.709-.017,2.974-.017h.556l63.857-.547Z" transform="translate(-15.411 -73.377)" opacity="0.2"/><path d="M368.588,656.57V677.5a5.24,5.24,0,0,1-2.992,4.735,5.128,5.128,0,0,1-2.137.513l-29.83.633a5.129,5.129,0,0,1-2.308-.487,5.231,5.231,0,0,1-3.051-4.761V656.57Z" transform="translate(-115.5 -243.165)" fill="#3f3d56"/><path d="M368.588,656.57V677.5a5.24,5.24,0,0,1-2.992,4.735,5.128,5.128,0,0,1-2.137.513l-29.83.633a5.129,5.129,0,0,1-2.308-.487,5.231,5.231,0,0,1-3.051-4.761V656.57Z" transform="translate(-115.5 -243.165)" opacity="0.1"/><path d="M370.588,656.57V677.5a5.24,5.24,0,0,1-2.992,4.735,5.127,5.127,0,0,1-2.137.513l-29.83.633a5.129,5.129,0,0,1-2.308-.487,5.231,5.231,0,0,1-3.051-4.761V656.57Z" transform="translate(-115.79 -243.165)" fill="#3f3d56"/><rect width="40.318" height="26.924" transform="translate(582.015 413.405)" fill="#3f3d56"/><rect width="40.318" height="26.924" transform="translate(582.015 413.405)" opacity="0.1"/><rect width="40.318" height="26.924" transform="translate(580.305 413.405)" fill="#3f3d56"/><path d="M227.84,265.82v4.9L211.6,270.3V265.82Z" transform="translate(-30.737 -38.61)" opacity="0.1"/><path d="M403.38,274.8,383.866,414.972a3.675,3.675,0,0,1-3.735,3.171l-156.245-4.051-2.966-.077a3.675,3.675,0,0,1-3.556-4.163l21.907-146.741a3.675,3.675,0,0,1,3.88-3.1l156.809,10.616a3.667,3.667,0,0,1,3.419,4.171Z" transform="translate(-99.384 -185.556)" fill="#65617d"/><path d="M173.122,99.16,156.6,228.507l143.6,4.556,17.659-124.791Z" transform="translate(-22.747 -14.4)" fill="#5dd98a"/><rect width="174.938" height="148.151" rx="5.33" transform="translate(328.732 82.76)" fill="#65617d"/><rect width="158.98" height="123.364" transform="translate(336.988 92.735)" fill="#5dd98a"/><path d="M739.17,262.82v3.239l-16.24.333V262.82Z" transform="translate(-105.017 -38.174)" opacity="0.1"/><path d="M876.576,407.016a2.633,2.633,0,0,1-2.564,2.8l-160.006,3.308a2.633,2.633,0,0,1-2.675-2.385l-13.753-142.98a2.632,2.632,0,0,1,2.5-2.88l158.792-7.9,1.709-.085a2.624,2.624,0,0,1,2.752,2.393Z" transform="translate(-169.146 -185.105)" fill="#65617d"/><path d="M628.93,101.948,773.952,94.82,786.2,224.739l-143.877,3.419Z" transform="translate(-91.361 -13.769)" fill="#5dd98a"/><path d="M903.99,407.016a2.633,2.633,0,0,1-2.564,2.8L886.28,256.985l1.709-.085a2.624,2.624,0,0,1,2.752,2.393Z" transform="translate(-196.56 -185.105)" opacity="0.1"/><path d="M243.177,260,223.886,414.089l-2.966-.077a3.675,3.675,0,0,1-3.556-4.163l21.907-146.74A3.675,3.675,0,0,1,243.177,260Z" transform="translate(-99.384 -185.554)" opacity="0.1"/><rect width="16.24" height="14.599" transform="translate(180.863 261.904)" opacity="0.1"/><path d="M291.248,483.65V487.9l-40.318,1.077V483.65Z" transform="translate(-36.45 -70.253)" opacity="0.1"/><path d="M431.709,484.7V628.462a3.419,3.419,0,0,1-3.291,3.376L264.609,636.2h-.043a3.419,3.419,0,0,1-3.376-3.376V484.7a3.419,3.419,0,0,1,3.376-3.376H428.333A3.419,3.419,0,0,1,431.709,484.7Z" transform="translate(-105.755 -217.707)" fill="#65617d"/><path d="M264.609,481.32V636.2h-.043a3.419,3.419,0,0,1-3.376-3.376V484.7a3.419,3.419,0,0,1,3.376-3.376Z" transform="translate(-105.755 -217.707)" opacity="0.1"/><path d="M194.6,319.15H346.315V445.864L194.6,449.283Z" transform="translate(-28.267 -46.357)" fill="#d4dfec"/><rect width="16.24" height="14.889" transform="translate(617.913 261.904)" opacity="0.1"/><path d="M719.248,483.65v5.479l-40.318-1.077v-4.4Z" transform="translate(-98.625 -70.253)" opacity="0.1"/><path d="M838.7,484.7V632.821a3.419,3.419,0,0,1-3.419,3.376h0l-163.844-4.359a3.419,3.419,0,0,1-3.291-3.376V484.7a3.419,3.419,0,0,1,3.376-3.376H835.293a3.419,3.419,0,0,1,3.41,3.376Z" transform="translate(-164.873 -217.707)" fill="#65617d"/><path d="M867.109,484.7V632.821a3.419,3.419,0,0,1-3.419,3.376h0V481.32h0a3.419,3.419,0,0,1,3.419,3.376Z" transform="translate(-193.279 -217.707)" opacity="0.1"/><path d="M749.815,319.15H598.1V445.864l151.715,3.419Z" transform="translate(-86.883 -46.357)" fill="#d4dfec"/><path d="M634.209,484.7V628.462a3.419,3.419,0,0,1-3.291,3.376L467.109,636.2h0a3.419,3.419,0,0,1-3.419-3.376V484.7a3.419,3.419,0,0,1,3.376-3.376H630.833A3.419,3.419,0,0,1,634.209,484.7Z" transform="translate(-135.172 -217.707)" fill="#65617d"/><path d="M397.1,319.15H548.815V445.864L397.1,449.283Z" transform="translate(-57.684 -46.357)" fill="#d4dfec"/><path d="M753.133,533.65v11.112l-129.851,1.2-1.385.026-49.352.453-1.18.017-15,.128h-.444l-91.439.846-150.1,1.393h-.128l-38.164.359-.41.009L106.1,550.745V537.924l173.092-1.137h.41l35.035-.239h.162l241.958-1.6h.248l.145-.009h.4l4.094-.026h1.248l63.669-.427,3.761-.017.838-.009Z" transform="translate(-15.411 -77.517)" opacity="0.1"/><circle cx="43.873" cy="43.873" r="43.873" transform="translate(372.605 188.756)" fill="#fbbebe"/><path d="M383.74,670.309a1.061,1.061,0,0,1,.085-.3c.855-3.069,2.376-8.257,3.513-12.4.145-.513.282-1.017.41-1.5,1.256-4.675,3.7-15.625,5.06-22.454.479-2.4.855-4.274.932-5.214.171-1.445,2.744-7.624,5.658-14.727,2.043-4.992,4.274-10.445,5.906-15.043a52.459,52.459,0,0,0,2.5-8.419,4.358,4.358,0,0,0,0-1.821,12.556,12.556,0,0,1-.41-2.992h0c-.2-5.3,1.385-13.676,3.829-17.189,2.992-4.274,5.128-20.223,5.128-20.223s4.427.641,5.128-3.017a5.258,5.258,0,0,0,.085-1.2,6.33,6.33,0,0,0-.077-.949c-.761-5.334,12.582-11.009,20.086-12.231a16.8,16.8,0,0,1,2.564-.239,23.278,23.278,0,0,0,5.342-1.231q1.2-.367,2.564-.855c3.145-1.06,6.906-2.462,10.9-4,15.009-5.821,33.181-13.676,33.181-13.676.128-.607.273-1.188.436-1.761A23.685,23.685,0,0,1,510.54,492.7h0v-1.709c0-2.949-.128-5.983-.256-9.009,0-.59-.051-1.18-.085-1.769v-.966c0-.6-.06-1.2-.094-1.786l-.154-.12a14.022,14.022,0,0,1-3.333-3.59,13.045,13.045,0,0,1-1.214-2.564c-1.068-2.9-1.316-6.128-2.034-9.188l-.154-.632a71.8,71.8,0,0,0-3.419-9.043c-1.889-4.633-3.342-9.4-4.787-14.231q-1.316-4.385-2.658-8.787L491,424.821c-.256-.855-.513-1.709-.709-2.564h0a11.334,11.334,0,0,1-.222-1.2h0a8.548,8.548,0,0,1,.205-3.94,27.462,27.462,0,0,1,1.128-2.564,6.72,6.72,0,0,0,.427-1.18h0a2.569,2.569,0,0,0,.068-.273,4.829,4.829,0,0,0,.094-.923,15.781,15.781,0,0,0-.444-3.325.059.059,0,0,1,0-.043,2.177,2.177,0,0,0-.043-.231,21.786,21.786,0,0,1-.308-2.564,24.318,24.318,0,0,1,2.966-13.308l.162-.308a21.572,21.572,0,0,1,1.573-2.376h0a12,12,0,0,1,.855-1.043c-1.2,1.145-3.163.641-4.274-.59a3.089,3.089,0,0,1-.47-.641,3.268,3.268,0,0,1-.2-.385c-.043-.1-.077-.214-.111-.325-.6-2.094.444-4.325,1.812-6.026A15.8,15.8,0,0,1,498.42,377h0a3.284,3.284,0,0,1,.342-.179,14.629,14.629,0,0,1,2.256-.906h0a12.852,12.852,0,0,1,1.393-.376l-3.171-.291-1.282-.12A12.385,12.385,0,0,1,509.07,365.8h.923a10.029,10.029,0,0,1,1.342.111,3.8,3.8,0,0,1-2.265-3.7,12.317,12.317,0,0,0,7.855,2.615h.325a25.64,25.64,0,0,1-.291-2.795h0a28.346,28.346,0,0,1,0-3.812,7.214,7.214,0,0,0,5.8,1.932l-1.778-2.479a8.111,8.111,0,0,0,5.607,1.752l.41-.043a5.986,5.986,0,0,0,1.017-.2h.077c-.162-.205-.308-.419-.453-.641l-.051-.1a8.264,8.264,0,0,1-.855-1.786,5.632,5.632,0,0,1-.205-.744h0a7.479,7.479,0,0,1,.385-4.658c2.761,2.308,5.786,5.462,9.4,3.077s3.735-6.761,9.4-6.316a8.718,8.718,0,0,1,7.188,5.231,5.769,5.769,0,0,1,6.556-1.5,5.855,5.855,0,0,1,3.316,5.889c2.351-.59,4.88-1.171,7.137-.282s3.71,3.769,2.427,5.693a1.228,1.228,0,0,1-.12.171c-1.051,1.359-3.376,2.1-3.128,3.812l.359.256,1.111.8q6.539,4.718,12.735,9.915c2.12,1.778,4.376,3.915,4.522,6.693a7.387,7.387,0,0,1-.205,2.026h0c-.137.667-.325,1.333-.47,2a16.677,16.677,0,0,0-.291,5.171h0c.06.5.137,1,.231,1.5,1.308,6.607,6.59,12.06,7.111,18.8v.479a15.191,15.191,0,0,1-.06,2.163c-.393,4.1-2.291,8.043-3.829,11.966-.094.239-.188.479-.273.718a119.073,119.073,0,0,0-5.983,24.069,85.688,85.688,0,0,1-1.71,8.624,22.847,22.847,0,0,1-4.351,8.915,13.863,13.863,0,0,1-2.872,2.564,15.959,15.959,0,0,1-2.265,1.205v.051c.094.521.171,1.043.265,1.564.051.273.094.547.145.855h0a.118.118,0,0,0,0,.051c.718,4.043,1.539,8,2.4,11.761l.436,1.872c10.77,3.889,12.043,11.855,12.12,14.907a8.235,8.235,0,0,1,0,1.222s16.24.427,22.65,5.128a17.378,17.378,0,0,0,3.855,1.966,70.917,70.917,0,0,0,7.906,2.47c1.376.359,2.812.71,4.274,1.051,2.564.59,5.282,1.162,7.906,1.71,7,1.41,13.59,2.564,16.932,3.419,7.975,2.017,26.215,19.505,26.215,19.505s2.137,17.642,4.274,20.215,5.983,11.616,5.983,11.616l14.137,25.138,5.983,10.573h3.846a6.539,6.539,0,0,1,2.744,1.795c1.017.906,2.145,2.034,3.137,3.06l1.641,1.752,1.026,1.137s6.214.154,7.9,5.069c5.06-.145,11.274.188,15.625,2.137a12.1,12.1,0,0,1,1.71.923,7.419,7.419,0,0,1,3.53,4.838,7.139,7.139,0,0,1,.154,1.231c0,.487,0,.974,0,1.453-.308,6.47-4.521,11.855-8.393,15.479l.273.487s-.128.308-.376.855c-.068.162-.154.342-.248.547h0c-.5,1.077-1.308,2.692-2.359,4.581a54.114,54.114,0,0,1-8.18,11.257l-.248.257-49.352.453-.145-.171L671.041,655.7l-4.761-5.675-.145-.18L666,651.205l-.461,4.53-1.111,10.949-.06.547v.145l-.128,1.265.094-1.265h-.248l-91.456.855L422.519,669.89v.718h-.12v-.718l-38.249.41Z" transform="translate(-123.558 -198.337)" fill="url(#a)"/><path d="M604.773,534.087s-85.046,10.257-76.926,0c2.94-3.71,3.752-14.7,3.59-27.223-.051-3.8-.188-7.744-.385-11.667-.94-18.8-3.205-37.181-3.205-37.181s74.362-35.044,65.814-7.265c-3.419,11.223-2.3,26.984.3,41.779.761,4.316,1.641,8.547,2.564,12.565a294.592,294.592,0,0,0,8.248,28.993Z" transform="translate(-144.412 -211.71)" fill="#ffdede"/><path d="M604.773,544.8s-85.046,10.257-76.926,0c2.94-3.71,3.752-14.7,3.59-27.223,12.966-5.539,29.463-1.41,29.463-1.41,17.368-3.462,28.505-2.786,35.625-.359A294.583,294.583,0,0,0,604.773,544.8Z" transform="translate(-144.412 -222.421)" opacity="0.1"/><path d="M422.556,694.977v-.718l150.108-1.633,91.456-.855h.257l-.094,1.265.128-1.265h.162v-.145l1.171-11.5.444-4.351.137-1.359.12-1.137,5.282-17.616,5.282-17.59,4.445-14.812,6.787-22.633s-3.846-8.975-5.983-11.539-4.274-20.086-4.274-20.086-18.24-17.377-26.215-19.377c-3.342-.855-9.94-1.992-16.949-3.419-2.624-.53-5.316-1.094-7.906-1.709-1.462-.333-2.9-.684-4.274-1.034a75.115,75.115,0,0,1-7.906-2.445,17.693,17.693,0,0,1-3.846-1.957c-6.282-4.607-22.026-5.128-22.633-5.128h0a.363.363,0,0,1,0-.06V533.8a8.757,8.757,0,0,0,0-1.077,6.875,6.875,0,0,0-.077-1.2,1.079,1.079,0,0,0-.06-.427c-.043-.308-.094-.633-.171-.974a4.266,4.266,0,0,0-.1-.453,14.708,14.708,0,0,0-1.068-2.983c-.06-.137-.137-.282-.205-.419a15.6,15.6,0,0,0-1.453-2.248c-.111-.145-.231-.3-.359-.444a16.729,16.729,0,0,0-2.325-2.257c-.231-.18-.47-.368-.718-.538a3.987,3.987,0,0,0-.436-.308l-.761-.5-.709-.41c-.624-.342-1.282-.675-2-.991-.222-.1-.462-.2-.7-.291s-.615-.239-.932-.359h-.051l-.641-.256c-.487-.162-.983-.308-1.5-.453l-.795-.205-.855-.2-.855-.179c-.855-.171-1.769-.325-2.727-.445l-.974-.12-1-.1-1.034-.085-1.47-.085-1.709-.06a106.6,106.6,0,0,0-22.438,2.387,61.771,61.771,0,0,0-15.6-1.438h-.744l-.855.051h-.547l-1.1.1a8.2,8.2,0,0,0-1.111.128c-.367.051-.752.094-1.12.154l-.564.094c-.556.094-1.12.2-1.709.316q-.282.051-.564.128c-.744.162-1.487.359-2.222.581-.367.1-.735.222-1.1.35-.188.051-.368.12-.547.188l-.547.2-.539.214-.641.256c-.325.137-.641.282-.957.436-.18.077-.359.162-.53.256s-.35.171-.513.265a23.717,23.717,0,0,0-5.308,3.744l-.436.419-.427.436c-.145.145-.282.3-.419.453a20.373,20.373,0,0,0-1.556,1.923c-.137.18-.265.359-.393.547a22.81,22.81,0,0,0-1.47,2.5c-.111.205-.214.419-.316.624a27.955,27.955,0,0,0-1.709,4.487q-.239.855-.436,1.71s-18.095,7.983-33.1,13.761c-3.992,1.539-7.752,2.932-10.9,3.983-.915.308-1.769.59-2.564.855a22.824,22.824,0,0,1-5.342,1.231,16.814,16.814,0,0,0-2.564.239c-6.9,1.12-18.719,5.983-20.009,10.864a3.154,3.154,0,0,0-.086,1.2s0,.06,0,.094c.855,5.983-5.128,5.128-5.128,5.128s-2.137,15.813-5.128,20.086c-2.162,3.077-3.641,9.941-3.829,15.12h0a16.763,16.763,0,0,0,.376,4.812v.12c.342,1.145-.479,4.274-1.872,8.282-1.513,4.4-3.718,9.872-5.838,15.035-3.2,7.8-6.205,14.872-6.393,16.428-.077.692-.3,1.932-.607,3.53-1.248,6.513-4.017,18.915-5.385,23.932-1.017,3.744-2.5,8.872-3.513,12.394a1.2,1.2,0,0,1-.086.3l38.318-.376v.718h.12Z" transform="translate(-123.62 -222.707)" fill="#5dd98a"/><path d="M445.44,607.57s48.72,25.215,66.242,22.223Z" transform="translate(-132.521 -236.047)" opacity="0.1"/><path d="M561.44,595.57s47.438,15.385,63.25,17.522S561.44,595.57,561.44,595.57Z" transform="translate(-149.372 -234.304)" opacity="0.1"/><path d="M607.427,534.762c-24.787,4.564-71.456,3.581-91.627,2.889,7.394-26.5,43.446-17.488,43.446-17.488C603.872,511.257,607.291,529.737,607.427,534.762Z" transform="translate(-142.742 -223.002)" opacity="0.1"/><path d="M607.427,532.763c-24.787,4.564-71.456,3.581-91.627,2.889,7.394-26.5,43.446-17.488,43.446-17.488C603.872,509.257,607.291,527.737,607.427,532.763Z" transform="translate(-142.742 -222.712)" fill="#5dd98a"/><path d="M776.94,672.191s29.2-4.487,29.77,8.334S791.821,702.3,791.821,702.3Z" transform="translate(-180.677 -245.324)" fill="#fbbebe"/><path d="M594.045,492.529a40.209,40.209,0,0,1-3.846,1.487c-9.214,3.18-18.5,6.385-28.206,7.547s-19.881.137-28.343-4.7a24.589,24.589,0,0,1-2.564-1.667c-.94-18.8-3.205-37.181-3.205-37.181s74.362-35.044,65.814-7.265C590.293,461.973,591.446,477.734,594.045,492.529Z" transform="translate(-144.497 -211.71)" opacity="0.1"/><path d="M546.041,362.953a8.1,8.1,0,0,1-7.111-1.5l1.778,2.47a7.24,7.24,0,0,1-5.8-1.923,29.131,29.131,0,0,0,.274,6.624,12.41,12.41,0,0,1-8.171-2.564,3.778,3.778,0,0,0,2.257,3.684,12.257,12.257,0,0,0-13.334,9.154l4.462.41a15.786,15.786,0,0,0-8.923,5.445c-1.368,1.709-2.41,3.9-1.812,5.983s3.487,3.419,5.06,1.932a23.881,23.881,0,0,0-5.214,19.479,12.367,12.367,0,0,1,.393,4.5c-.282,1.41-1.171,2.633-1.615,4.009-.855,2.5-.043,5.205.718,7.693l4.009,13.18c1.453,4.761,2.9,9.53,4.795,14.137a70.154,70.154,0,0,1,3.419,8.983c1.077,4.137,1.12,8.667,3.419,12.282a17.035,17.035,0,0,0,6.137,5.41c8.453,4.838,18.667,5.864,28.343,4.7s18.958-4.368,28.163-7.547a26.5,26.5,0,0,0,5.846-2.564c6.368-4.171,7.787-12.7,8.975-20.214a114.783,114.783,0,0,1,6.231-24.616c1.863-4.692,4.274-9.453,3.863-14.479-.521-6.675-5.8-12.086-7.111-18.65a16.24,16.24,0,0,1,.06-6.641,15.094,15.094,0,0,0,.675-4.017c-.145-2.752-2.4-4.872-4.522-6.641q-6.9-5.761-14.24-10.889c-.248-1.709,2.077-2.445,3.128-3.8,1.487-1.906-.051-4.932-2.308-5.821s-4.786-.308-7.137.282a5.633,5.633,0,0,0-9.872-4.368,8.718,8.718,0,0,0-7.2-5.2c-5.667-.444-5.778,3.889-9.4,6.274s-6.616-.761-9.4-3.051A7.932,7.932,0,0,0,546.041,362.953Z" transform="translate(-141.597 -198.9)" fill="#271e10"/><path d="M788.131,688.557s-.761,1.812-2.163,4.436a58.974,58.974,0,0,1-7.693,11.257l-.231.248h-1.385l-49.352.453h-1.18l-.145-.171-9.573-11.359-3.607-4.282-.145-.18-.308-.359-.171-.205-.222-.265L704.94,679.8l2.564-10.684,4.368-18,.111-.436.855-3.419.607-2.564,2.034-8.359,6.975-28.762,12.394,6.411,13.069,23.078,7.017,12.394h3.846c.727,0,2.393,1.4,4.069,3.017.6.573,1.2,1.18,1.709,1.709,1.521,1.573,2.727,2.923,2.727,2.923s6.231.137,7.906,5.043a5.98,5.98,0,0,1,.214.727,34.45,34.45,0,0,0,2.162,5.607c1.1,2.4,2.487,5.128,3.889,7.855,2.607,5,5.257,9.761,6.231,11.488l.12.214Z" transform="translate(-170.218 -236.048)" fill="#5dd98a"/><path d="M674.62,655.479l-.086,1.222v.086l-.145,1.966-1.137,15.821-1.376,19.06L671.483,699l-.855,11.488v.145l-91.456.855L429.09,713.114v.718h-.12v-.957l.385-12.274.735-23.984.633-20.334.06-2.026a9,9,0,0,1,9.761-8.693c4.034.342,9.274.761,15.539,1.205l2.564.188c36.181,2.513,103.047,5.761,170.519,1.709,1.419-.077,2.846-.162,4.274-.265,10.462-.658,20.915-1.5,31.266-2.564a9,9,0,0,1,9.915,9.6Z" transform="translate(-130.128 -241.561)" opacity="0.1"/><path d="M429.08,714.417V713.7l150.108-1.633,91.456-.855h.256v-.145l.855-11.488.367-5.128,1.4-19.326,1.1-15.3v-.376a9.075,9.075,0,0,0-.094-2.111.26.26,0,0,0,0-.085,8.882,8.882,0,0,0-1.71-3.966,9.008,9.008,0,0,0-8.051-3.419c-10.351,1.06-20.8,1.906-31.266,2.564-1.427.1-2.855.188-4.274.265-67.473,4.009-134.338.761-170.519-1.709l-2.564-.188c-6.265-.444-11.5-.855-15.539-1.205A9.009,9.009,0,0,0,431,656.885a9.4,9.4,0,0,0-.154,1.4l-.581,18.941-.795,23.992-.376,12.274v.957Z" transform="translate(-130.144 -242.147)" fill="#3f3d56"/><path d="M674.9,663.148l-1.051,13.1-1.564,19.531-.393,4.889-.855,10.949-.051.547v.145h0l-.128,1.265.094-1.265H670.7l-91.456.855L429.11,714.791v-.239l.419-12.274.855-23.984.547-15.941a5.436,5.436,0,0,1,2.616-4.487,5.342,5.342,0,0,1,3.231-.769c1.795.145,4,.316,6.573.5,4.18.308,9.334.667,15.334,1.043,11.111.7,25.052,1.453,41.027,2.068,44.446,1.709,104.448,2.282,161.442-2.709,2.564-.222,5.214-.47,7.8-.718a5.35,5.35,0,0,1,2.974.564,4.409,4.409,0,0,1,.735.462,5.248,5.248,0,0,1,1.71,2.1,3.055,3.055,0,0,1,.214.521A5.368,5.368,0,0,1,674.9,663.148Z" transform="translate(-130.149 -243.239)" opacity="0.1"/><path d="M370.588,677.87V680.6a5.24,5.24,0,0,1-2.992,4.735l-34.275.658a5.231,5.231,0,0,1-3.051-4.761v-2.564Z" transform="translate(-115.79 -246.259)" opacity="0.1"/><path d="M291.01,514.311l-44.66.855v-7.411l44.66-.855Z" transform="translate(-35.785 -73.631)" fill="#3f3d56"/><path d="M291.01,514.311l-44.66.855v-7.411l44.66-.855Z" transform="translate(-35.785 -73.631)" opacity="0.1"/><path d="M293.01,514.311l-44.66.855v-7.411l44.66-.855Z" transform="translate(-36.076 -73.631)" fill="#3f3d56"/><g transform="translate(366.669 157.541)" opacity="0.1"><path d="M552.639,360.93a8.335,8.335,0,0,1-1.615-3.71,8.111,8.111,0,0,0,.359,3.932A7.7,7.7,0,0,0,552.639,360.93Z" transform="translate(-514.513 -357.22)"/><path d="M540.176,367.663a30.068,30.068,0,0,1-.316-3.163c0,1.051,0,2.111,0,3.171Z" transform="translate(-512.905 -358.278)"/><path d="M621.72,400.35a15.677,15.677,0,0,1,.308-2.265,15.383,15.383,0,0,0,.684-4.009,5.264,5.264,0,0,0-.137-.906c-.145.786-.376,1.573-.547,2.35a16.358,16.358,0,0,0-.308,4.829Z" transform="translate(-524.789 -362.442)"/><path d="M600.927,369.933l.932.675a16.845,16.845,0,0,0,2.2-1.9,3.137,3.137,0,0,0,.325-3.111,2.565,2.565,0,0,1-.325.547C603,367.5,600.679,368.241,600.927,369.933Z" transform="translate(-521.774 -358.437)"/><path d="M518.634,380.29a10.531,10.531,0,0,0-.744,1.949,15.521,15.521,0,0,1,4.274-1.615Z" transform="translate(-509.714 -360.571)"/><path d="M532.276,369.231a12.675,12.675,0,0,1-1.607-1.051,3.634,3.634,0,0,0,.077,1.009,10.14,10.14,0,0,1,1.53.043Z" transform="translate(-511.569 -358.812)"/><path d="M612.6,428.33c-.35,4.145-2.282,8.137-3.846,12.069a114.73,114.73,0,0,0-6.231,24.625c-1.188,7.513-2.564,16.043-8.975,20.206a25.642,25.642,0,0,1-5.838,2.564c-9.214,3.188-18.505,6.385-28.206,7.547s-19.881.145-28.343-4.692a17.1,17.1,0,0,1-6.137-5.41c-2.282-3.616-2.325-8.146-3.419-12.283a70.274,70.274,0,0,0-3.419-8.992c-1.889-4.6-3.342-9.4-4.786-14.129q-2.009-6.59-4.009-13.189a24.619,24.619,0,0,1-.974-4.06,15.319,15.319,0,0,0,.974,6.624q2,6.607,4.009,13.189c1.445,4.761,2.9,9.53,4.786,14.129a70.268,70.268,0,0,1,3.419,8.992c1.077,4.137,1.12,8.667,3.419,12.282a17.1,17.1,0,0,0,6.137,5.41c8.462,4.838,18.667,5.855,28.343,4.692s18.958-4.359,28.206-7.547a25.638,25.638,0,0,0,5.838-2.564c6.368-4.163,7.786-12.693,8.975-20.206a114.729,114.729,0,0,1,6.231-24.625c1.863-4.684,4.274-9.445,3.863-14.479C612.615,428.433,612.6,428.381,612.6,428.33Z" transform="translate(-508.324 -367.55)"/><path d="M510.5,423.2v-.094a11.965,11.965,0,0,0-.393-4.487,22.729,22.729,0,0,1-.333-2.838,23.381,23.381,0,0,0,.333,5.4C510.244,421.849,510.4,422.524,510.5,423.2Z" transform="translate(-508.53 -365.727)"/><path d="M513.171,399.141A23.71,23.71,0,0,1,515.4,396c-1.564,1.5-4.453.162-5.06-1.915a4.983,4.983,0,0,0,0,2.564,3.752,3.752,0,0,0,2.829,2.487Z" transform="translate(-508.593 -362.576)"/></g><path d="M763.235,656.57s2.71,9.829,0,18.377S763.235,656.57,763.235,656.57Z" transform="translate(-178.511 -243.165)" opacity="0.1"/><path d="M776.551,668.3s1.137,12.479-1.427,14.693S776.551,668.3,776.551,668.3Z" transform="translate(-180.288 -244.869)" opacity="0.1"/><line y1="0.855" x2="86.849" transform="translate(170.085 292.204)" fill="none" stroke="#5dd98a" stroke-miterlimit="10" stroke-width="2"/><line y1="0.846" x2="86.849" transform="translate(170.085 302.871)" fill="none" stroke="#5dd98a" stroke-miterlimit="10" stroke-width="2"/><line y1="0.855" x2="86.849" transform="translate(170.085 313.53)" fill="none" stroke="#5dd98a" stroke-miterlimit="10" stroke-width="2"/></g></svg>