<svg xmlns="http://www.w3.org/2000/svg" xmlns:xlink="http://www.w3.org/1999/xlink" width="1022" height="273" viewBox="0 0 1022 273"><defs><clipPath id="a"><rect width="1022" height="273" fill="none"/></clipPath></defs><g clip-path="url(#a)"><g transform="translate(-327 -7414)"><circle cx="6" cy="6" r="6" transform="translate(327 7414)" fill="#f7f7f7"/></g><g transform="translate(-303 -7414)"><circle cx="6" cy="6" r="6" transform="translate(327 7414)" fill="#f7f7f7"/></g><g transform="translate(-279 -7414)"><circle cx="6" cy="6" r="6" transform="translate(327 7414)" fill="#f7f7f7"/></g><g transform="translate(-255 -7414)"><circle cx="6" cy="6" r="6" transform="translate(327 7414)" fill="#f7f7f7"/></g><g transform="translate(-231 -7414)"><circle cx="6" cy="6" r="6" transform="translate(327 7414)" fill="#f7f7f7"/></g><g transform="translate(-207 -7414)"><circle cx="6" cy="6" r="6" transform="translate(327 7414)" fill="#f7f7f7"/></g><g transform="translate(-183 -7414)"><circle cx="6" cy="6" r="6" transform="translate(327 7414)" fill="#f7f7f7"/></g><g transform="translate(-159 -7414)"><circle cx="6" cy="6" r="6" transform="translate(327 7414)" fill="#f7f7f7"/></g><g transform="translate(-135 -7414)"><circle cx="6" cy="6" r="6" transform="translate(327 7414)" fill="#f7f7f7"/></g><g transform="translate(-111 -7414)"><circle cx="6" cy="6" r="6" transform="translate(327 7414)" fill="#f7f7f7"/></g><g transform="translate(-87 -7414)"><circle cx="6" cy="6" r="6" transform="translate(327 7414)" fill="#f7f7f7"/></g><g transform="translate(-63 -7414)"><circle cx="6" cy="6" r="6" transform="translate(327 7414)" fill="#f7f7f7"/></g><g transform="translate(-39 -7414)"><circle cx="6" cy="6" r="6" transform="translate(327 7414)" fill="#f7f7f7"/></g><g transform="translate(-15 -7414)"><circle cx="6" cy="6" r="6" transform="translate(327 7414)" fill="#f7f7f7"/></g><g transform="translate(9 -7414)"><circle cx="6" cy="6" r="6" transform="translate(327 7414)" fill="#f7f7f7"/></g><g transform="translate(33 -7414)"><circle cx="6" cy="6" r="6" transform="translate(327 7414)" fill="#f7f7f7"/></g><g transform="translate(57 -7414)"><circle cx="6" cy="6" r="6" transform="translate(327 7414)" fill="#f7f7f7"/></g><g transform="translate(81 -7414)"><circle cx="6" cy="6" r="6" transform="translate(327 7414)" fill="#f7f7f7"/></g><g transform="translate(105 -7414)"><circle cx="6" cy="6" r="6" transform="translate(327 7414)" fill="#f7f7f7"/></g><g transform="translate(129 -7414)"><circle cx="6" cy="6" r="6" transform="translate(327 7414)" fill="#f7f7f7"/></g><g transform="translate(153 -7414)"><circle cx="6" cy="6" r="6" transform="translate(327 7414)" fill="#f7f7f7"/></g><g transform="translate(177 -7414)"><circle cx="6" cy="6" r="6" transform="translate(327 7414)" fill="#f7f7f7"/></g><g transform="translate(201 -7414)"><circle cx="6" cy="6" r="6" transform="translate(327 7414)" fill="#f7f7f7"/></g><g transform="translate(225 -7414)"><circle cx="6" cy="6" r="6" transform="translate(327 7414)" fill="#f7f7f7"/></g><g transform="translate(249 -7414)"><circle cx="6" cy="6" r="6" transform="translate(327 7414)" fill="#f7f7f7"/></g><g transform="translate(273 -7414)"><circle cx="6" cy="6" r="6" transform="translate(327 7414)" fill="#f7f7f7"/></g><g transform="translate(297 -7414)"><circle cx="6" cy="6" r="6" transform="translate(327 7414)" fill="#f7f7f7"/></g><g transform="translate(321 -7414)"><circle cx="6" cy="6" r="6" transform="translate(327 7414)" fill="#f7f7f7"/></g><g transform="translate(345 -7414)"><circle cx="6" cy="6" r="6" transform="translate(327 7414)" fill="#f7f7f7"/></g><g transform="translate(369 -7414)"><circle cx="6" cy="6" r="6" transform="translate(327 7414)" fill="#f7f7f7"/></g><g transform="translate(393 -7414)"><circle cx="6" cy="6" r="6" transform="translate(327 7414)" fill="#f7f7f7"/></g><g transform="translate(417 -7414)"><circle cx="6" cy="6" r="6" transform="translate(327 7414)" fill="#f7f7f7"/></g><g transform="translate(441 -7414)"><circle cx="6" cy="6" r="6" transform="translate(327 7414)" fill="#f7f7f7"/></g><g transform="translate(465 -7414)"><circle cx="6" cy="6" r="6" transform="translate(327 7414)" fill="#f7f7f7"/></g><g transform="translate(489 -7414)"><circle cx="6" cy="6" r="6" transform="translate(327 7414)" fill="#f7f7f7"/></g><g transform="translate(513 -7414)"><circle cx="6" cy="6" r="6" transform="translate(327 7414)" fill="#f7f7f7"/></g><g transform="translate(537 -7414)"><circle cx="6" cy="6" r="6" transform="translate(327 7414)" fill="#f7f7f7"/></g><g transform="translate(561 -7414)"><circle cx="6" cy="6" r="6" transform="translate(327 7414)" fill="#f7f7f7"/></g><g transform="translate(585 -7414)"><circle cx="6" cy="6" r="6" transform="translate(327 7414)" fill="#f7f7f7"/></g><g transform="translate(609 -7414)"><circle cx="6" cy="6" r="6" transform="translate(327 7414)" fill="#f7f7f7"/></g><g transform="translate(633 -7414)"><circle cx="6" cy="6" r="6" transform="translate(327 7414)" fill="#f7f7f7"/></g><g transform="translate(657 -7414)"><circle cx="6" cy="6" r="6" transform="translate(327 7414)" fill="#f7f7f7"/></g><g transform="translate(681 -7414)"><circle cx="6" cy="6" r="6" transform="translate(327 7414)" fill="#f7f7f7"/></g><g transform="translate(-327 -7386)"><circle cx="6" cy="6" r="6" transform="translate(327 7414)" fill="#f7f7f7"/></g><g transform="translate(-303 -7386)"><circle cx="6" cy="6" r="6" transform="translate(327 7414)" fill="#f7f7f7"/></g><g transform="translate(-279 -7386)"><circle cx="6" cy="6" r="6" transform="translate(327 7414)" fill="#f7f7f7"/></g><g transform="translate(-255 -7386)"><circle cx="6" cy="6" r="6" transform="translate(327 7414)" fill="#f7f7f7"/></g><g transform="translate(-231 -7386)"><circle cx="6" cy="6" r="6" transform="translate(327 7414)" fill="#f7f7f7"/></g><g transform="translate(-207 -7386)"><circle cx="6" cy="6" r="6" transform="translate(327 7414)" fill="#f7f7f7"/></g><g transform="translate(-183 -7386)"><circle cx="6" cy="6" r="6" transform="translate(327 7414)" fill="#f7f7f7"/></g><g transform="translate(-159 -7386)"><circle cx="6" cy="6" r="6" transform="translate(327 7414)" fill="#f7f7f7"/></g><g transform="translate(-135 -7386)"><circle cx="6" cy="6" r="6" transform="translate(327 7414)" fill="#f7f7f7"/></g><g transform="translate(-111 -7386)"><circle cx="6" cy="6" r="6" transform="translate(327 7414)" fill="#f7f7f7"/></g><g transform="translate(-87 -7386)"><circle cx="6" cy="6" r="6" transform="translate(327 7414)" fill="#f7f7f7"/></g><g transform="translate(-63 -7386)"><circle cx="6" cy="6" r="6" transform="translate(327 7414)" fill="#f7f7f7"/></g><g transform="translate(-39 -7386)"><circle cx="6" cy="6" r="6" transform="translate(327 7414)" fill="#f7f7f7"/></g><g transform="translate(-15 -7386)"><circle cx="6" cy="6" r="6" transform="translate(327 7414)" fill="#f7f7f7"/></g><g transform="translate(9 -7386)"><circle cx="6" cy="6" r="6" transform="translate(327 7414)" fill="#f7f7f7"/></g><g transform="translate(33 -7386)"><circle cx="6" cy="6" r="6" transform="translate(327 7414)" fill="#f7f7f7"/></g><g transform="translate(57 -7386)"><circle cx="6" cy="6" r="6" transform="translate(327 7414)" fill="#f7f7f7"/></g><g transform="translate(81 -7386)"><circle cx="6" cy="6" r="6" transform="translate(327 7414)" fill="#f7f7f7"/></g><g transform="translate(105 -7386)"><circle cx="6" cy="6" r="6" transform="translate(327 7414)" fill="#f7f7f7"/></g><g transform="translate(129 -7386)"><circle cx="6" cy="6" r="6" transform="translate(327 7414)" fill="#f7f7f7"/></g><g transform="translate(153 -7386)"><circle cx="6" cy="6" r="6" transform="translate(327 7414)" fill="#f7f7f7"/></g><g transform="translate(177 -7386)"><circle cx="6" cy="6" r="6" transform="translate(327 7414)" fill="#f7f7f7"/></g><g transform="translate(201 -7386)"><circle cx="6" cy="6" r="6" transform="translate(327 7414)" fill="#f7f7f7"/></g><g transform="translate(225 -7386)"><circle cx="6" cy="6" r="6" transform="translate(327 7414)" fill="#f7f7f7"/></g><g transform="translate(249 -7386)"><circle cx="6" cy="6" r="6" transform="translate(327 7414)" fill="#f7f7f7"/></g><g transform="translate(273 -7386)"><circle cx="6" cy="6" r="6" transform="translate(327 7414)" fill="#f7f7f7"/></g><g transform="translate(297 -7386)"><circle cx="6" cy="6" r="6" transform="translate(327 7414)" fill="#f7f7f7"/></g><g transform="translate(321 -7386)"><circle cx="6" cy="6" r="6" transform="translate(327 7414)" fill="#f7f7f7"/></g><g transform="translate(345 -7386)"><circle cx="6" cy="6" r="6" transform="translate(327 7414)" fill="#f7f7f7"/></g><g transform="translate(369 -7386)"><circle cx="6" cy="6" r="6" transform="translate(327 7414)" fill="#f7f7f7"/></g><g transform="translate(393 -7386)"><circle cx="6" cy="6" r="6" transform="translate(327 7414)" fill="#f7f7f7"/></g><g transform="translate(417 -7386)"><circle cx="6" cy="6" r="6" transform="translate(327 7414)" fill="#f7f7f7"/></g><g transform="translate(441 -7386)"><circle cx="6" cy="6" r="6" transform="translate(327 7414)" fill="#f7f7f7"/></g><g transform="translate(465 -7386)"><circle cx="6" cy="6" r="6" transform="translate(327 7414)" fill="#f7f7f7"/></g><g transform="translate(489 -7386)"><circle cx="6" cy="6" r="6" transform="translate(327 7414)" fill="#f7f7f7"/></g><g transform="translate(513 -7386)"><circle cx="6" cy="6" r="6" transform="translate(327 7414)" fill="#f7f7f7"/></g><g transform="translate(537 -7386)"><circle cx="6" cy="6" r="6" transform="translate(327 7414)" fill="#f7f7f7"/></g><g transform="translate(561 -7386)"><circle cx="6" cy="6" r="6" transform="translate(327 7414)" fill="#f7f7f7"/></g><g transform="translate(585 -7386)"><circle cx="6" cy="6" r="6" transform="translate(327 7414)" fill="#f7f7f7"/></g><g transform="translate(609 -7386)"><circle cx="6" cy="6" r="6" transform="translate(327 7414)" fill="#f7f7f7"/></g><g transform="translate(633 -7386)"><circle cx="6" cy="6" r="6" transform="translate(327 7414)" fill="#f7f7f7"/></g><g transform="translate(657 -7386)"><circle cx="6" cy="6" r="6" transform="translate(327 7414)" fill="#f7f7f7"/></g><g transform="translate(681 -7386)"><circle cx="6" cy="6" r="6" transform="translate(327 7414)" fill="#f7f7f7"/></g><g transform="translate(-327 -7358)"><circle cx="6" cy="6" r="6" transform="translate(327 7414)" fill="#f7f7f7"/></g><g transform="translate(-303 -7358)"><circle cx="6" cy="6" r="6" transform="translate(327 7414)" fill="#f7f7f7"/></g><g transform="translate(-279 -7358)"><circle cx="6" cy="6" r="6" transform="translate(327 7414)" fill="#f7f7f7"/></g><g transform="translate(-255 -7358)"><circle cx="6" cy="6" r="6" transform="translate(327 7414)" fill="#f7f7f7"/></g><g transform="translate(-231 -7358)"><circle cx="6" cy="6" r="6" transform="translate(327 7414)" fill="#f7f7f7"/></g><g transform="translate(-207 -7358)"><circle cx="6" cy="6" r="6" transform="translate(327 7414)" fill="#f7f7f7"/></g><g transform="translate(-183 -7358)"><circle cx="6" cy="6" r="6" transform="translate(327 7414)" fill="#f7f7f7"/></g><g transform="translate(-159 -7358)"><circle cx="6" cy="6" r="6" transform="translate(327 7414)" fill="#f7f7f7"/></g><g transform="translate(-135 -7358)"><circle cx="6" cy="6" r="6" transform="translate(327 7414)" fill="#f7f7f7"/></g><g transform="translate(-111 -7358)"><circle cx="6" cy="6" r="6" transform="translate(327 7414)" fill="#f7f7f7"/></g><g transform="translate(-87 -7358)"><circle cx="6" cy="6" r="6" transform="translate(327 7414)" fill="#f7f7f7"/></g><g transform="translate(-63 -7358)"><circle cx="6" cy="6" r="6" transform="translate(327 7414)" fill="#f7f7f7"/></g><g transform="translate(-39 -7358)"><circle cx="6" cy="6" r="6" transform="translate(327 7414)" fill="#f7f7f7"/></g><g transform="translate(-15 -7358)"><circle cx="6" cy="6" r="6" transform="translate(327 7414)" fill="#f7f7f7"/></g><g transform="translate(9 -7358)"><circle cx="6" cy="6" r="6" transform="translate(327 7414)" fill="#f7f7f7"/></g><g transform="translate(33 -7358)"><circle cx="6" cy="6" r="6" transform="translate(327 7414)" fill="#f7f7f7"/></g><g transform="translate(57 -7358)"><circle cx="6" cy="6" r="6" transform="translate(327 7414)" fill="#f7f7f7"/></g><g transform="translate(81 -7358)"><circle cx="6" cy="6" r="6" transform="translate(327 7414)" fill="#f7f7f7"/></g><g transform="translate(105 -7358)"><circle cx="6" cy="6" r="6" transform="translate(327 7414)" fill="#f7f7f7"/></g><g transform="translate(129 -7358)"><circle cx="6" cy="6" r="6" transform="translate(327 7414)" fill="#f7f7f7"/></g><g transform="translate(153 -7358)"><circle cx="6" cy="6" r="6" transform="translate(327 7414)" fill="#f7f7f7"/></g><g transform="translate(177 -7358)"><circle cx="6" cy="6" r="6" transform="translate(327 7414)" fill="#f7f7f7"/></g><g transform="translate(201 -7358)"><circle cx="6" cy="6" r="6" transform="translate(327 7414)" fill="#f7f7f7"/></g><g transform="translate(225 -7358)"><circle cx="6" cy="6" r="6" transform="translate(327 7414)" fill="#f7f7f7"/></g><g transform="translate(249 -7358)"><circle cx="6" cy="6" r="6" transform="translate(327 7414)" fill="#f7f7f7"/></g><g transform="translate(273 -7358)"><circle cx="6" cy="6" r="6" transform="translate(327 7414)" fill="#f7f7f7"/></g><g transform="translate(297 -7358)"><circle cx="6" cy="6" r="6" transform="translate(327 7414)" fill="#f7f7f7"/></g><g transform="translate(321 -7358)"><circle cx="6" cy="6" r="6" transform="translate(327 7414)" fill="#f7f7f7"/></g><g transform="translate(345 -7358)"><circle cx="6" cy="6" r="6" transform="translate(327 7414)" fill="#f7f7f7"/></g><g transform="translate(369 -7358)"><circle cx="6" cy="6" r="6" transform="translate(327 7414)" fill="#f7f7f7"/></g><g transform="translate(393 -7358)"><circle cx="6" cy="6" r="6" transform="translate(327 7414)" fill="#f7f7f7"/></g><g transform="translate(417 -7358)"><circle cx="6" cy="6" r="6" transform="translate(327 7414)" fill="#f7f7f7"/></g><g transform="translate(441 -7358)"><circle cx="6" cy="6" r="6" transform="translate(327 7414)" fill="#f7f7f7"/></g><g transform="translate(465 -7358)"><circle cx="6" cy="6" r="6" transform="translate(327 7414)" fill="#f7f7f7"/></g><g transform="translate(489 -7358)"><circle cx="6" cy="6" r="6" transform="translate(327 7414)" fill="#f7f7f7"/></g><g transform="translate(513 -7358)"><circle cx="6" cy="6" r="6" transform="translate(327 7414)" fill="#f7f7f7"/></g><g transform="translate(537 -7358)"><circle cx="6" cy="6" r="6" transform="translate(327 7414)" fill="#f7f7f7"/></g><g transform="translate(561 -7358)"><circle cx="6" cy="6" r="6" transform="translate(327 7414)" fill="#f7f7f7"/></g><g transform="translate(585 -7358)"><circle cx="6" cy="6" r="6" transform="translate(327 7414)" fill="#f7f7f7"/></g><g transform="translate(609 -7358)"><circle cx="6" cy="6" r="6" transform="translate(327 7414)" fill="#f7f7f7"/></g><g transform="translate(633 -7358)"><circle cx="6" cy="6" r="6" transform="translate(327 7414)" fill="#f7f7f7"/></g><g transform="translate(657 -7358)"><circle cx="6" cy="6" r="6" transform="translate(327 7414)" fill="#f7f7f7"/></g><g transform="translate(681 -7358)"><circle cx="6" cy="6" r="6" transform="translate(327 7414)" fill="#f7f7f7"/></g><g transform="translate(-327 -7330)"><circle cx="6" cy="6" r="6" transform="translate(327 7414)" fill="#f7f7f7"/></g><g transform="translate(-303 -7330)"><circle cx="6" cy="6" r="6" transform="translate(327 7414)" fill="#f7f7f7"/></g><g transform="translate(-279 -7330)"><circle cx="6" cy="6" r="6" transform="translate(327 7414)" fill="#f7f7f7"/></g><g transform="translate(-255 -7330)"><circle cx="6" cy="6" r="6" transform="translate(327 7414)" fill="#f7f7f7"/></g><g transform="translate(-231 -7330)"><circle cx="6" cy="6" r="6" transform="translate(327 7414)" fill="#f7f7f7"/></g><g transform="translate(-207 -7330)"><circle cx="6" cy="6" r="6" transform="translate(327 7414)" fill="#f7f7f7"/></g><g transform="translate(-183 -7330)"><circle cx="6" cy="6" r="6" transform="translate(327 7414)" fill="#f7f7f7"/></g><g transform="translate(-159 -7330)"><circle cx="6" cy="6" r="6" transform="translate(327 7414)" fill="#f7f7f7"/></g><g transform="translate(-135 -7330)"><circle cx="6" cy="6" r="6" transform="translate(327 7414)" fill="#f7f7f7"/></g><g transform="translate(-111 -7330)"><circle cx="6" cy="6" r="6" transform="translate(327 7414)" fill="#f7f7f7"/></g><g transform="translate(-87 -7330)"><circle cx="6" cy="6" r="6" transform="translate(327 7414)" fill="#f7f7f7"/></g><g transform="translate(-63 -7330)"><circle cx="6" cy="6" r="6" transform="translate(327 7414)" fill="#f7f7f7"/></g><g transform="translate(-39 -7330)"><circle cx="6" cy="6" r="6" transform="translate(327 7414)" fill="#f7f7f7"/></g><g transform="translate(-15 -7330)"><circle cx="6" cy="6" r="6" transform="translate(327 7414)" fill="#f7f7f7"/></g><g transform="translate(9 -7330)"><circle cx="6" cy="6" r="6" transform="translate(327 7414)" fill="#f7f7f7"/></g><g transform="translate(33 -7330)"><circle cx="6" cy="6" r="6" transform="translate(327 7414)" fill="#f7f7f7"/></g><g transform="translate(57 -7330)"><circle cx="6" cy="6" r="6" transform="translate(327 7414)" fill="#f7f7f7"/></g><g transform="translate(81 -7330)"><circle cx="6" cy="6" r="6" transform="translate(327 7414)" fill="#f7f7f7"/></g><g transform="translate(105 -7330)"><circle cx="6" cy="6" r="6" transform="translate(327 7414)" fill="#f7f7f7"/></g><g transform="translate(129 -7330)"><circle cx="6" cy="6" r="6" transform="translate(327 7414)" fill="#f7f7f7"/></g><g transform="translate(153 -7330)"><circle cx="6" cy="6" r="6" transform="translate(327 7414)" fill="#f7f7f7"/></g><g transform="translate(177 -7330)"><circle cx="6" cy="6" r="6" transform="translate(327 7414)" fill="#f7f7f7"/></g><g transform="translate(201 -7330)"><circle cx="6" cy="6" r="6" transform="translate(327 7414)" fill="#f7f7f7"/></g><g transform="translate(225 -7330)"><circle cx="6" cy="6" r="6" transform="translate(327 7414)" fill="#f7f7f7"/></g><g transform="translate(249 -7330)"><circle cx="6" cy="6" r="6" transform="translate(327 7414)" fill="#f7f7f7"/></g><g transform="translate(273 -7330)"><circle cx="6" cy="6" r="6" transform="translate(327 7414)" fill="#f7f7f7"/></g><g transform="translate(297 -7330)"><circle cx="6" cy="6" r="6" transform="translate(327 7414)" fill="#f7f7f7"/></g><g transform="translate(321 -7330)"><circle cx="6" cy="6" r="6" transform="translate(327 7414)" fill="#f7f7f7"/></g><g transform="translate(345 -7330)"><circle cx="6" cy="6" r="6" transform="translate(327 7414)" fill="#f7f7f7"/></g><g transform="translate(369 -7330)"><circle cx="6" cy="6" r="6" transform="translate(327 7414)" fill="#f7f7f7"/></g><g transform="translate(393 -7330)"><circle cx="6" cy="6" r="6" transform="translate(327 7414)" fill="#f7f7f7"/></g><g transform="translate(417 -7330)"><circle cx="6" cy="6" r="6" transform="translate(327 7414)" fill="#f7f7f7"/></g><g transform="translate(441 -7330)"><circle cx="6" cy="6" r="6" transform="translate(327 7414)" fill="#f7f7f7"/></g><g transform="translate(465 -7330)"><circle cx="6" cy="6" r="6" transform="translate(327 7414)" fill="#f7f7f7"/></g><g transform="translate(489 -7330)"><circle cx="6" cy="6" r="6" transform="translate(327 7414)" fill="#f7f7f7"/></g><g transform="translate(513 -7330)"><circle cx="6" cy="6" r="6" transform="translate(327 7414)" fill="#f7f7f7"/></g><g transform="translate(537 -7330)"><circle cx="6" cy="6" r="6" transform="translate(327 7414)" fill="#f7f7f7"/></g><g transform="translate(561 -7330)"><circle cx="6" cy="6" r="6" transform="translate(327 7414)" fill="#f7f7f7"/></g><g transform="translate(585 -7330)"><circle cx="6" cy="6" r="6" transform="translate(327 7414)" fill="#f7f7f7"/></g><g transform="translate(609 -7330)"><circle cx="6" cy="6" r="6" transform="translate(327 7414)" fill="#f7f7f7"/></g><g transform="translate(633 -7330)"><circle cx="6" cy="6" r="6" transform="translate(327 7414)" fill="#f7f7f7"/></g><g transform="translate(657 -7330)"><circle cx="6" cy="6" r="6" transform="translate(327 7414)" fill="#f7f7f7"/></g><g transform="translate(681 -7330)"><circle cx="6" cy="6" r="6" transform="translate(327 7414)" fill="#f7f7f7"/></g><g transform="translate(-327 -7302)"><circle cx="6" cy="6" r="6" transform="translate(327 7414)" fill="#f7f7f7"/></g><g transform="translate(-303 -7302)"><circle cx="6" cy="6" r="6" transform="translate(327 7414)" fill="#f7f7f7"/></g><g transform="translate(-279 -7302)"><circle cx="6" cy="6" r="6" transform="translate(327 7414)" fill="#f7f7f7"/></g><g transform="translate(-255 -7302)"><circle cx="6" cy="6" r="6" transform="translate(327 7414)" fill="#f7f7f7"/></g><g transform="translate(-231 -7302)"><circle cx="6" cy="6" r="6" transform="translate(327 7414)" fill="#f7f7f7"/></g><g transform="translate(-207 -7302)"><circle cx="6" cy="6" r="6" transform="translate(327 7414)" fill="#f7f7f7"/></g><g transform="translate(-183 -7302)"><circle cx="6" cy="6" r="6" transform="translate(327 7414)" fill="#f7f7f7"/></g><g transform="translate(-159 -7302)"><circle cx="6" cy="6" r="6" transform="translate(327 7414)" fill="#f7f7f7"/></g><g transform="translate(-135 -7302)"><circle cx="6" cy="6" r="6" transform="translate(327 7414)" fill="#f7f7f7"/></g><g transform="translate(-111 -7302)"><circle cx="6" cy="6" r="6" transform="translate(327 7414)" fill="#f7f7f7"/></g><g transform="translate(-87 -7302)"><circle cx="6" cy="6" r="6" transform="translate(327 7414)" fill="#f7f7f7"/></g><g transform="translate(-63 -7302)"><circle cx="6" cy="6" r="6" transform="translate(327 7414)" fill="#f7f7f7"/></g><g transform="translate(-39 -7302)"><circle cx="6" cy="6" r="6" transform="translate(327 7414)" fill="#f7f7f7"/></g><g transform="translate(-15 -7302)"><circle cx="6" cy="6" r="6" transform="translate(327 7414)" fill="#f7f7f7"/></g><g transform="translate(9 -7302)"><circle cx="6" cy="6" r="6" transform="translate(327 7414)" fill="#f7f7f7"/></g><g transform="translate(33 -7302)"><circle cx="6" cy="6" r="6" transform="translate(327 7414)" fill="#f7f7f7"/></g><g transform="translate(57 -7302)"><circle cx="6" cy="6" r="6" transform="translate(327 7414)" fill="#f7f7f7"/></g><g transform="translate(81 -7302)"><circle cx="6" cy="6" r="6" transform="translate(327 7414)" fill="#f7f7f7"/></g><g transform="translate(105 -7302)"><circle cx="6" cy="6" r="6" transform="translate(327 7414)" fill="#f7f7f7"/></g><g transform="translate(129 -7302)"><circle cx="6" cy="6" r="6" transform="translate(327 7414)" fill="#f7f7f7"/></g><g transform="translate(153 -7302)"><circle cx="6" cy="6" r="6" transform="translate(327 7414)" fill="#f7f7f7"/></g><g transform="translate(177 -7302)"><circle cx="6" cy="6" r="6" transform="translate(327 7414)" fill="#f7f7f7"/></g><g transform="translate(201 -7302)"><circle cx="6" cy="6" r="6" transform="translate(327 7414)" fill="#f7f7f7"/></g><g transform="translate(225 -7302)"><circle cx="6" cy="6" r="6" transform="translate(327 7414)" fill="#f7f7f7"/></g><g transform="translate(249 -7302)"><circle cx="6" cy="6" r="6" transform="translate(327 7414)" fill="#f7f7f7"/></g><g transform="translate(273 -7302)"><circle cx="6" cy="6" r="6" transform="translate(327 7414)" fill="#f7f7f7"/></g><g transform="translate(297 -7302)"><circle cx="6" cy="6" r="6" transform="translate(327 7414)" fill="#f7f7f7"/></g><g transform="translate(321 -7302)"><circle cx="6" cy="6" r="6" transform="translate(327 7414)" fill="#f7f7f7"/></g><g transform="translate(345 -7302)"><circle cx="6" cy="6" r="6" transform="translate(327 7414)" fill="#f7f7f7"/></g><g transform="translate(369 -7302)"><circle cx="6" cy="6" r="6" transform="translate(327 7414)" fill="#f7f7f7"/></g><g transform="translate(393 -7302)"><circle cx="6" cy="6" r="6" transform="translate(327 7414)" fill="#f7f7f7"/></g><g transform="translate(417 -7302)"><circle cx="6" cy="6" r="6" transform="translate(327 7414)" fill="#f7f7f7"/></g><g transform="translate(441 -7302)"><circle cx="6" cy="6" r="6" transform="translate(327 7414)" fill="#f7f7f7"/></g><g transform="translate(465 -7302)"><circle cx="6" cy="6" r="6" transform="translate(327 7414)" fill="#f7f7f7"/></g><g transform="translate(489 -7302)"><circle cx="6" cy="6" r="6" transform="translate(327 7414)" fill="#f7f7f7"/></g><g transform="translate(513 -7302)"><circle cx="6" cy="6" r="6" transform="translate(327 7414)" fill="#f7f7f7"/></g><g transform="translate(537 -7302)"><circle cx="6" cy="6" r="6" transform="translate(327 7414)" fill="#f7f7f7"/></g><g transform="translate(561 -7302)"><circle cx="6" cy="6" r="6" transform="translate(327 7414)" fill="#f7f7f7"/></g><g transform="translate(585 -7302)"><circle cx="6" cy="6" r="6" transform="translate(327 7414)" fill="#f7f7f7"/></g><g transform="translate(609 -7302)"><circle cx="6" cy="6" r="6" transform="translate(327 7414)" fill="#f7f7f7"/></g><g transform="translate(633 -7302)"><circle cx="6" cy="6" r="6" transform="translate(327 7414)" fill="#f7f7f7"/></g><g transform="translate(657 -7302)"><circle cx="6" cy="6" r="6" transform="translate(327 7414)" fill="#f7f7f7"/></g><g transform="translate(681 -7302)"><circle cx="6" cy="6" r="6" transform="translate(327 7414)" fill="#f7f7f7"/></g><g transform="translate(-327 -7274)"><circle cx="6" cy="6" r="6" transform="translate(327 7414)" fill="#f7f7f7"/></g><g transform="translate(-303 -7274)"><circle cx="6" cy="6" r="6" transform="translate(327 7414)" fill="#f7f7f7"/></g><g transform="translate(-279 -7274)"><circle cx="6" cy="6" r="6" transform="translate(327 7414)" fill="#f7f7f7"/></g><g transform="translate(-255 -7274)"><circle cx="6" cy="6" r="6" transform="translate(327 7414)" fill="#f7f7f7"/></g><g transform="translate(-231 -7274)"><circle cx="6" cy="6" r="6" transform="translate(327 7414)" fill="#f7f7f7"/></g><g transform="translate(-207 -7274)"><circle cx="6" cy="6" r="6" transform="translate(327 7414)" fill="#f7f7f7"/></g><g transform="translate(-183 -7274)"><circle cx="6" cy="6" r="6" transform="translate(327 7414)" fill="#f7f7f7"/></g><g transform="translate(-159 -7274)"><circle cx="6" cy="6" r="6" transform="translate(327 7414)" fill="#f7f7f7"/></g><g transform="translate(-135 -7274)"><circle cx="6" cy="6" r="6" transform="translate(327 7414)" fill="#f7f7f7"/></g><g transform="translate(-111 -7274)"><circle cx="6" cy="6" r="6" transform="translate(327 7414)" fill="#f7f7f7"/></g><g transform="translate(-87 -7274)"><circle cx="6" cy="6" r="6" transform="translate(327 7414)" fill="#f7f7f7"/></g><g transform="translate(-63 -7274)"><circle cx="6" cy="6" r="6" transform="translate(327 7414)" fill="#f7f7f7"/></g><g transform="translate(-39 -7274)"><circle cx="6" cy="6" r="6" transform="translate(327 7414)" fill="#f7f7f7"/></g><g transform="translate(-15 -7274)"><circle cx="6" cy="6" r="6" transform="translate(327 7414)" fill="#f7f7f7"/></g><g transform="translate(9 -7274)"><circle cx="6" cy="6" r="6" transform="translate(327 7414)" fill="#f7f7f7"/></g><g transform="translate(33 -7274)"><circle cx="6" cy="6" r="6" transform="translate(327 7414)" fill="#f7f7f7"/></g><g transform="translate(57 -7274)"><circle cx="6" cy="6" r="6" transform="translate(327 7414)" fill="#f7f7f7"/></g><g transform="translate(81 -7274)"><circle cx="6" cy="6" r="6" transform="translate(327 7414)" fill="#f7f7f7"/></g><g transform="translate(105 -7274)"><circle cx="6" cy="6" r="6" transform="translate(327 7414)" fill="#f7f7f7"/></g><g transform="translate(129 -7274)"><circle cx="6" cy="6" r="6" transform="translate(327 7414)" fill="#f7f7f7"/></g><g transform="translate(153 -7274)"><circle cx="6" cy="6" r="6" transform="translate(327 7414)" fill="#f7f7f7"/></g><g transform="translate(177 -7274)"><circle cx="6" cy="6" r="6" transform="translate(327 7414)" fill="#f7f7f7"/></g><g transform="translate(201 -7274)"><circle cx="6" cy="6" r="6" transform="translate(327 7414)" fill="#f7f7f7"/></g><g transform="translate(225 -7274)"><circle cx="6" cy="6" r="6" transform="translate(327 7414)" fill="#f7f7f7"/></g><g transform="translate(249 -7274)"><circle cx="6" cy="6" r="6" transform="translate(327 7414)" fill="#f7f7f7"/></g><g transform="translate(273 -7274)"><circle cx="6" cy="6" r="6" transform="translate(327 7414)" fill="#f7f7f7"/></g><g transform="translate(297 -7274)"><circle cx="6" cy="6" r="6" transform="translate(327 7414)" fill="#f7f7f7"/></g><g transform="translate(321 -7274)"><circle cx="6" cy="6" r="6" transform="translate(327 7414)" fill="#f7f7f7"/></g><g transform="translate(345 -7274)"><circle cx="6" cy="6" r="6" transform="translate(327 7414)" fill="#f7f7f7"/></g><g transform="translate(369 -7274)"><circle cx="6" cy="6" r="6" transform="translate(327 7414)" fill="#f7f7f7"/></g><g transform="translate(393 -7274)"><circle cx="6" cy="6" r="6" transform="translate(327 7414)" fill="#f7f7f7"/></g><g transform="translate(417 -7274)"><circle cx="6" cy="6" r="6" transform="translate(327 7414)" fill="#f7f7f7"/></g><g transform="translate(441 -7274)"><circle cx="6" cy="6" r="6" transform="translate(327 7414)" fill="#f7f7f7"/></g><g transform="translate(465 -7274)"><circle cx="6" cy="6" r="6" transform="translate(327 7414)" fill="#f7f7f7"/></g><g transform="translate(489 -7274)"><circle cx="6" cy="6" r="6" transform="translate(327 7414)" fill="#f7f7f7"/></g><g transform="translate(513 -7274)"><circle cx="6" cy="6" r="6" transform="translate(327 7414)" fill="#f7f7f7"/></g><g transform="translate(537 -7274)"><circle cx="6" cy="6" r="6" transform="translate(327 7414)" fill="#f7f7f7"/></g><g transform="translate(561 -7274)"><circle cx="6" cy="6" r="6" transform="translate(327 7414)" fill="#f7f7f7"/></g><g transform="translate(585 -7274)"><circle cx="6" cy="6" r="6" transform="translate(327 7414)" fill="#f7f7f7"/></g><g transform="translate(609 -7274)"><circle cx="6" cy="6" r="6" transform="translate(327 7414)" fill="#f7f7f7"/></g><g transform="translate(633 -7274)"><circle cx="6" cy="6" r="6" transform="translate(327 7414)" fill="#f7f7f7"/></g><g transform="translate(657 -7274)"><circle cx="6" cy="6" r="6" transform="translate(327 7414)" fill="#f7f7f7"/></g><g transform="translate(681 -7274)"><circle cx="6" cy="6" r="6" transform="translate(327 7414)" fill="#f7f7f7"/></g><g transform="translate(-327 -7246)"><circle cx="6" cy="6" r="6" transform="translate(327 7414)" fill="#f7f7f7"/></g><g transform="translate(-303 -7246)"><circle cx="6" cy="6" r="6" transform="translate(327 7414)" fill="#f7f7f7"/></g><g transform="translate(-279 -7246)"><circle cx="6" cy="6" r="6" transform="translate(327 7414)" fill="#f7f7f7"/></g><g transform="translate(-255 -7246)"><circle cx="6" cy="6" r="6" transform="translate(327 7414)" fill="#f7f7f7"/></g><g transform="translate(-231 -7246)"><circle cx="6" cy="6" r="6" transform="translate(327 7414)" fill="#f7f7f7"/></g><g transform="translate(-207 -7246)"><circle cx="6" cy="6" r="6" transform="translate(327 7414)" fill="#f7f7f7"/></g><g transform="translate(-183 -7246)"><circle cx="6" cy="6" r="6" transform="translate(327 7414)" fill="#f7f7f7"/></g><g transform="translate(-159 -7246)"><circle cx="6" cy="6" r="6" transform="translate(327 7414)" fill="#f7f7f7"/></g><g transform="translate(-135 -7246)"><circle cx="6" cy="6" r="6" transform="translate(327 7414)" fill="#f7f7f7"/></g><g transform="translate(-111 -7246)"><circle cx="6" cy="6" r="6" transform="translate(327 7414)" fill="#f7f7f7"/></g><g transform="translate(-87 -7246)"><circle cx="6" cy="6" r="6" transform="translate(327 7414)" fill="#f7f7f7"/></g><g transform="translate(-63 -7246)"><circle cx="6" cy="6" r="6" transform="translate(327 7414)" fill="#f7f7f7"/></g><g transform="translate(-39 -7246)"><circle cx="6" cy="6" r="6" transform="translate(327 7414)" fill="#f7f7f7"/></g><g transform="translate(-15 -7246)"><circle cx="6" cy="6" r="6" transform="translate(327 7414)" fill="#f7f7f7"/></g><g transform="translate(9 -7246)"><circle cx="6" cy="6" r="6" transform="translate(327 7414)" fill="#f7f7f7"/></g><g transform="translate(33 -7246)"><circle cx="6" cy="6" r="6" transform="translate(327 7414)" fill="#f7f7f7"/></g><g transform="translate(57 -7246)"><circle cx="6" cy="6" r="6" transform="translate(327 7414)" fill="#f7f7f7"/></g><g transform="translate(81 -7246)"><circle cx="6" cy="6" r="6" transform="translate(327 7414)" fill="#f7f7f7"/></g><g transform="translate(105 -7246)"><circle cx="6" cy="6" r="6" transform="translate(327 7414)" fill="#f7f7f7"/></g><g transform="translate(129 -7246)"><circle cx="6" cy="6" r="6" transform="translate(327 7414)" fill="#f7f7f7"/></g><g transform="translate(153 -7246)"><circle cx="6" cy="6" r="6" transform="translate(327 7414)" fill="#f7f7f7"/></g><g transform="translate(177 -7246)"><circle cx="6" cy="6" r="6" transform="translate(327 7414)" fill="#f7f7f7"/></g><g transform="translate(201 -7246)"><circle cx="6" cy="6" r="6" transform="translate(327 7414)" fill="#f7f7f7"/></g><g transform="translate(225 -7246)"><circle cx="6" cy="6" r="6" transform="translate(327 7414)" fill="#f7f7f7"/></g><g transform="translate(249 -7246)"><circle cx="6" cy="6" r="6" transform="translate(327 7414)" fill="#f7f7f7"/></g><g transform="translate(273 -7246)"><circle cx="6" cy="6" r="6" transform="translate(327 7414)" fill="#f7f7f7"/></g><g transform="translate(297 -7246)"><circle cx="6" cy="6" r="6" transform="translate(327 7414)" fill="#f7f7f7"/></g><g transform="translate(321 -7246)"><circle cx="6" cy="6" r="6" transform="translate(327 7414)" fill="#f7f7f7"/></g><g transform="translate(345 -7246)"><circle cx="6" cy="6" r="6" transform="translate(327 7414)" fill="#f7f7f7"/></g><g transform="translate(369 -7246)"><circle cx="6" cy="6" r="6" transform="translate(327 7414)" fill="#f7f7f7"/></g><g transform="translate(393 -7246)"><circle cx="6" cy="6" r="6" transform="translate(327 7414)" fill="#f7f7f7"/></g><g transform="translate(417 -7246)"><circle cx="6" cy="6" r="6" transform="translate(327 7414)" fill="#f7f7f7"/></g><g transform="translate(441 -7246)"><circle cx="6" cy="6" r="6" transform="translate(327 7414)" fill="#f7f7f7"/></g><g transform="translate(465 -7246)"><circle cx="6" cy="6" r="6" transform="translate(327 7414)" fill="#f7f7f7"/></g><g transform="translate(489 -7246)"><circle cx="6" cy="6" r="6" transform="translate(327 7414)" fill="#f7f7f7"/></g><g transform="translate(513 -7246)"><circle cx="6" cy="6" r="6" transform="translate(327 7414)" fill="#f7f7f7"/></g><g transform="translate(537 -7246)"><circle cx="6" cy="6" r="6" transform="translate(327 7414)" fill="#f7f7f7"/></g><g transform="translate(561 -7246)"><circle cx="6" cy="6" r="6" transform="translate(327 7414)" fill="#f7f7f7"/></g><g transform="translate(585 -7246)"><circle cx="6" cy="6" r="6" transform="translate(327 7414)" fill="#f7f7f7"/></g><g transform="translate(609 -7246)"><circle cx="6" cy="6" r="6" transform="translate(327 7414)" fill="#f7f7f7"/></g><g transform="translate(633 -7246)"><circle cx="6" cy="6" r="6" transform="translate(327 7414)" fill="#f7f7f7"/></g><g transform="translate(657 -7246)"><circle cx="6" cy="6" r="6" transform="translate(327 7414)" fill="#f7f7f7"/></g><g transform="translate(681 -7246)"><circle cx="6" cy="6" r="6" transform="translate(327 7414)" fill="#f7f7f7"/></g><g transform="translate(-327 -7218)"><circle cx="6" cy="6" r="6" transform="translate(327 7414)" fill="#f7f7f7"/></g><g transform="translate(-303 -7218)"><circle cx="6" cy="6" r="6" transform="translate(327 7414)" fill="#f7f7f7"/></g><g transform="translate(-279 -7218)"><circle cx="6" cy="6" r="6" transform="translate(327 7414)" fill="#f7f7f7"/></g><g transform="translate(-255 -7218)"><circle cx="6" cy="6" r="6" transform="translate(327 7414)" fill="#f7f7f7"/></g><g transform="translate(-231 -7218)"><circle cx="6" cy="6" r="6" transform="translate(327 7414)" fill="#f7f7f7"/></g><g transform="translate(-207 -7218)"><circle cx="6" cy="6" r="6" transform="translate(327 7414)" fill="#f7f7f7"/></g><g transform="translate(-183 -7218)"><circle cx="6" cy="6" r="6" transform="translate(327 7414)" fill="#f7f7f7"/></g><g transform="translate(-159 -7218)"><circle cx="6" cy="6" r="6" transform="translate(327 7414)" fill="#f7f7f7"/></g><g transform="translate(-135 -7218)"><circle cx="6" cy="6" r="6" transform="translate(327 7414)" fill="#f7f7f7"/></g><g transform="translate(-111 -7218)"><circle cx="6" cy="6" r="6" transform="translate(327 7414)" fill="#f7f7f7"/></g><g transform="translate(-87 -7218)"><circle cx="6" cy="6" r="6" transform="translate(327 7414)" fill="#f7f7f7"/></g><g transform="translate(-63 -7218)"><circle cx="6" cy="6" r="6" transform="translate(327 7414)" fill="#f7f7f7"/></g><g transform="translate(-39 -7218)"><circle cx="6" cy="6" r="6" transform="translate(327 7414)" fill="#f7f7f7"/></g><g transform="translate(-15 -7218)"><circle cx="6" cy="6" r="6" transform="translate(327 7414)" fill="#f7f7f7"/></g><g transform="translate(9 -7218)"><circle cx="6" cy="6" r="6" transform="translate(327 7414)" fill="#f7f7f7"/></g><g transform="translate(33 -7218)"><circle cx="6" cy="6" r="6" transform="translate(327 7414)" fill="#f7f7f7"/></g><g transform="translate(57 -7218)"><circle cx="6" cy="6" r="6" transform="translate(327 7414)" fill="#f7f7f7"/></g><g transform="translate(81 -7218)"><circle cx="6" cy="6" r="6" transform="translate(327 7414)" fill="#f7f7f7"/></g><g transform="translate(105 -7218)"><circle cx="6" cy="6" r="6" transform="translate(327 7414)" fill="#f7f7f7"/></g><g transform="translate(129 -7218)"><circle cx="6" cy="6" r="6" transform="translate(327 7414)" fill="#f7f7f7"/></g><g transform="translate(153 -7218)"><circle cx="6" cy="6" r="6" transform="translate(327 7414)" fill="#f7f7f7"/></g><g transform="translate(177 -7218)"><circle cx="6" cy="6" r="6" transform="translate(327 7414)" fill="#f7f7f7"/></g><g transform="translate(201 -7218)"><circle cx="6" cy="6" r="6" transform="translate(327 7414)" fill="#f7f7f7"/></g><g transform="translate(225 -7218)"><circle cx="6" cy="6" r="6" transform="translate(327 7414)" fill="#f7f7f7"/></g><g transform="translate(249 -7218)"><circle cx="6" cy="6" r="6" transform="translate(327 7414)" fill="#f7f7f7"/></g><g transform="translate(273 -7218)"><circle cx="6" cy="6" r="6" transform="translate(327 7414)" fill="#f7f7f7"/></g><g transform="translate(297 -7218)"><circle cx="6" cy="6" r="6" transform="translate(327 7414)" fill="#f7f7f7"/></g><g transform="translate(321 -7218)"><circle cx="6" cy="6" r="6" transform="translate(327 7414)" fill="#f7f7f7"/></g><g transform="translate(345 -7218)"><circle cx="6" cy="6" r="6" transform="translate(327 7414)" fill="#f7f7f7"/></g><g transform="translate(369 -7218)"><circle cx="6" cy="6" r="6" transform="translate(327 7414)" fill="#f7f7f7"/></g><g transform="translate(393 -7218)"><circle cx="6" cy="6" r="6" transform="translate(327 7414)" fill="#f7f7f7"/></g><g transform="translate(417 -7218)"><circle cx="6" cy="6" r="6" transform="translate(327 7414)" fill="#f7f7f7"/></g><g transform="translate(441 -7218)"><circle cx="6" cy="6" r="6" transform="translate(327 7414)" fill="#f7f7f7"/></g><g transform="translate(465 -7218)"><circle cx="6" cy="6" r="6" transform="translate(327 7414)" fill="#f7f7f7"/></g><g transform="translate(489 -7218)"><circle cx="6" cy="6" r="6" transform="translate(327 7414)" fill="#f7f7f7"/></g><g transform="translate(513 -7218)"><circle cx="6" cy="6" r="6" transform="translate(327 7414)" fill="#f7f7f7"/></g><g transform="translate(537 -7218)"><circle cx="6" cy="6" r="6" transform="translate(327 7414)" fill="#f7f7f7"/></g><g transform="translate(561 -7218)"><circle cx="6" cy="6" r="6" transform="translate(327 7414)" fill="#f7f7f7"/></g><g transform="translate(585 -7218)"><circle cx="6" cy="6" r="6" transform="translate(327 7414)" fill="#f7f7f7"/></g><g transform="translate(609 -7218)"><circle cx="6" cy="6" r="6" transform="translate(327 7414)" fill="#f7f7f7"/></g><g transform="translate(633 -7218)"><circle cx="6" cy="6" r="6" transform="translate(327 7414)" fill="#f7f7f7"/></g><g transform="translate(657 -7218)"><circle cx="6" cy="6" r="6" transform="translate(327 7414)" fill="#f7f7f7"/></g><g transform="translate(681 -7218)"><circle cx="6" cy="6" r="6" transform="translate(327 7414)" fill="#f7f7f7"/></g><g transform="translate(-327 -7190)"><circle cx="6" cy="6" r="6" transform="translate(327 7414)" fill="#f7f7f7"/></g><g transform="translate(-303 -7190)"><circle cx="6" cy="6" r="6" transform="translate(327 7414)" fill="#f7f7f7"/></g><g transform="translate(-279 -7190)"><circle cx="6" cy="6" r="6" transform="translate(327 7414)" fill="#f7f7f7"/></g><g transform="translate(-255 -7190)"><circle cx="6" cy="6" r="6" transform="translate(327 7414)" fill="#f7f7f7"/></g><g transform="translate(-231 -7190)"><circle cx="6" cy="6" r="6" transform="translate(327 7414)" fill="#f7f7f7"/></g><g transform="translate(-207 -7190)"><circle cx="6" cy="6" r="6" transform="translate(327 7414)" fill="#f7f7f7"/></g><g transform="translate(-183 -7190)"><circle cx="6" cy="6" r="6" transform="translate(327 7414)" fill="#f7f7f7"/></g><g transform="translate(-159 -7190)"><circle cx="6" cy="6" r="6" transform="translate(327 7414)" fill="#f7f7f7"/></g><g transform="translate(-135 -7190)"><circle cx="6" cy="6" r="6" transform="translate(327 7414)" fill="#f7f7f7"/></g><g transform="translate(-111 -7190)"><circle cx="6" cy="6" r="6" transform="translate(327 7414)" fill="#f7f7f7"/></g><g transform="translate(-87 -7190)"><circle cx="6" cy="6" r="6" transform="translate(327 7414)" fill="#f7f7f7"/></g><g transform="translate(-63 -7190)"><circle cx="6" cy="6" r="6" transform="translate(327 7414)" fill="#f7f7f7"/></g><g transform="translate(-39 -7190)"><circle cx="6" cy="6" r="6" transform="translate(327 7414)" fill="#f7f7f7"/></g><g transform="translate(-15 -7190)"><circle cx="6" cy="6" r="6" transform="translate(327 7414)" fill="#f7f7f7"/></g><g transform="translate(9 -7190)"><circle cx="6" cy="6" r="6" transform="translate(327 7414)" fill="#f7f7f7"/></g><g transform="translate(33 -7190)"><circle cx="6" cy="6" r="6" transform="translate(327 7414)" fill="#f7f7f7"/></g><g transform="translate(57 -7190)"><circle cx="6" cy="6" r="6" transform="translate(327 7414)" fill="#f7f7f7"/></g><g transform="translate(81 -7190)"><circle cx="6" cy="6" r="6" transform="translate(327 7414)" fill="#f7f7f7"/></g><g transform="translate(105 -7190)"><circle cx="6" cy="6" r="6" transform="translate(327 7414)" fill="#f7f7f7"/></g><g transform="translate(129 -7190)"><circle cx="6" cy="6" r="6" transform="translate(327 7414)" fill="#f7f7f7"/></g><g transform="translate(153 -7190)"><circle cx="6" cy="6" r="6" transform="translate(327 7414)" fill="#f7f7f7"/></g><g transform="translate(177 -7190)"><circle cx="6" cy="6" r="6" transform="translate(327 7414)" fill="#f7f7f7"/></g><g transform="translate(201 -7190)"><circle cx="6" cy="6" r="6" transform="translate(327 7414)" fill="#f7f7f7"/></g><g transform="translate(225 -7190)"><circle cx="6" cy="6" r="6" transform="translate(327 7414)" fill="#f7f7f7"/></g><g transform="translate(249 -7190)"><circle cx="6" cy="6" r="6" transform="translate(327 7414)" fill="#f7f7f7"/></g><g transform="translate(273 -7190)"><circle cx="6" cy="6" r="6" transform="translate(327 7414)" fill="#f7f7f7"/></g><g transform="translate(297 -7190)"><circle cx="6" cy="6" r="6" transform="translate(327 7414)" fill="#f7f7f7"/></g><g transform="translate(321 -7190)"><circle cx="6" cy="6" r="6" transform="translate(327 7414)" fill="#f7f7f7"/></g><g transform="translate(345 -7190)"><circle cx="6" cy="6" r="6" transform="translate(327 7414)" fill="#f7f7f7"/></g><g transform="translate(369 -7190)"><circle cx="6" cy="6" r="6" transform="translate(327 7414)" fill="#f7f7f7"/></g><g transform="translate(393 -7190)"><circle cx="6" cy="6" r="6" transform="translate(327 7414)" fill="#f7f7f7"/></g><g transform="translate(417 -7190)"><circle cx="6" cy="6" r="6" transform="translate(327 7414)" fill="#f7f7f7"/></g><g transform="translate(441 -7190)"><circle cx="6" cy="6" r="6" transform="translate(327 7414)" fill="#f7f7f7"/></g><g transform="translate(465 -7190)"><circle cx="6" cy="6" r="6" transform="translate(327 7414)" fill="#f7f7f7"/></g><g transform="translate(489 -7190)"><circle cx="6" cy="6" r="6" transform="translate(327 7414)" fill="#f7f7f7"/></g><g transform="translate(513 -7190)"><circle cx="6" cy="6" r="6" transform="translate(327 7414)" fill="#f7f7f7"/></g><g transform="translate(537 -7190)"><circle cx="6" cy="6" r="6" transform="translate(327 7414)" fill="#f7f7f7"/></g><g transform="translate(561 -7190)"><circle cx="6" cy="6" r="6" transform="translate(327 7414)" fill="#f7f7f7"/></g><g transform="translate(585 -7190)"><circle cx="6" cy="6" r="6" transform="translate(327 7414)" fill="#f7f7f7"/></g><g transform="translate(609 -7190)"><circle cx="6" cy="6" r="6" transform="translate(327 7414)" fill="#f7f7f7"/></g><g transform="translate(633 -7190)"><circle cx="6" cy="6" r="6" transform="translate(327 7414)" fill="#f7f7f7"/></g><g transform="translate(657 -7190)"><circle cx="6" cy="6" r="6" transform="translate(327 7414)" fill="#f7f7f7"/></g><g transform="translate(681 -7190)"><circle cx="6" cy="6" r="6" transform="translate(327 7414)" fill="#f7f7f7"/></g><g transform="translate(-327 -7162)"><circle cx="6" cy="6" r="6" transform="translate(327 7414)" fill="#f7f7f7"/></g><g transform="translate(-303 -7162)"><circle cx="6" cy="6" r="6" transform="translate(327 7414)" fill="#f7f7f7"/></g><g transform="translate(-279 -7162)"><circle cx="6" cy="6" r="6" transform="translate(327 7414)" fill="#f7f7f7"/></g><g transform="translate(-255 -7162)"><circle cx="6" cy="6" r="6" transform="translate(327 7414)" fill="#f7f7f7"/></g><g transform="translate(-231 -7162)"><circle cx="6" cy="6" r="6" transform="translate(327 7414)" fill="#f7f7f7"/></g><g transform="translate(-207 -7162)"><circle cx="6" cy="6" r="6" transform="translate(327 7414)" fill="#f7f7f7"/></g><g transform="translate(-183 -7162)"><circle cx="6" cy="6" r="6" transform="translate(327 7414)" fill="#f7f7f7"/></g><g transform="translate(-159 -7162)"><circle cx="6" cy="6" r="6" transform="translate(327 7414)" fill="#f7f7f7"/></g><g transform="translate(-135 -7162)"><circle cx="6" cy="6" r="6" transform="translate(327 7414)" fill="#f7f7f7"/></g><g transform="translate(-111 -7162)"><circle cx="6" cy="6" r="6" transform="translate(327 7414)" fill="#f7f7f7"/></g><g transform="translate(-87 -7162)"><circle cx="6" cy="6" r="6" transform="translate(327 7414)" fill="#f7f7f7"/></g><g transform="translate(-63 -7162)"><circle cx="6" cy="6" r="6" transform="translate(327 7414)" fill="#f7f7f7"/></g><g transform="translate(-39 -7162)"><circle cx="6" cy="6" r="6" transform="translate(327 7414)" fill="#f7f7f7"/></g><g transform="translate(-15 -7162)"><circle cx="6" cy="6" r="6" transform="translate(327 7414)" fill="#f7f7f7"/></g><g transform="translate(9 -7162)"><circle cx="6" cy="6" r="6" transform="translate(327 7414)" fill="#f7f7f7"/></g><g transform="translate(33 -7162)"><circle cx="6" cy="6" r="6" transform="translate(327 7414)" fill="#f7f7f7"/></g><g transform="translate(57 -7162)"><circle cx="6" cy="6" r="6" transform="translate(327 7414)" fill="#f7f7f7"/></g><g transform="translate(81 -7162)"><circle cx="6" cy="6" r="6" transform="translate(327 7414)" fill="#f7f7f7"/></g><g transform="translate(105 -7162)"><circle cx="6" cy="6" r="6" transform="translate(327 7414)" fill="#f7f7f7"/></g><g transform="translate(129 -7162)"><circle cx="6" cy="6" r="6" transform="translate(327 7414)" fill="#f7f7f7"/></g><g transform="translate(153 -7162)"><circle cx="6" cy="6" r="6" transform="translate(327 7414)" fill="#f7f7f7"/></g><g transform="translate(177 -7162)"><circle cx="6" cy="6" r="6" transform="translate(327 7414)" fill="#f7f7f7"/></g><g transform="translate(201 -7162)"><circle cx="6" cy="6" r="6" transform="translate(327 7414)" fill="#f7f7f7"/></g><g transform="translate(225 -7162)"><circle cx="6" cy="6" r="6" transform="translate(327 7414)" fill="#f7f7f7"/></g><g transform="translate(249 -7162)"><circle cx="6" cy="6" r="6" transform="translate(327 7414)" fill="#f7f7f7"/></g><g transform="translate(273 -7162)"><circle cx="6" cy="6" r="6" transform="translate(327 7414)" fill="#f7f7f7"/></g><g transform="translate(297 -7162)"><circle cx="6" cy="6" r="6" transform="translate(327 7414)" fill="#f7f7f7"/></g><g transform="translate(321 -7162)"><circle cx="6" cy="6" r="6" transform="translate(327 7414)" fill="#f7f7f7"/></g><g transform="translate(345 -7162)"><circle cx="6" cy="6" r="6" transform="translate(327 7414)" fill="#f7f7f7"/></g><g transform="translate(369 -7162)"><circle cx="6" cy="6" r="6" transform="translate(327 7414)" fill="#f7f7f7"/></g><g transform="translate(393 -7162)"><circle cx="6" cy="6" r="6" transform="translate(327 7414)" fill="#f7f7f7"/></g><g transform="translate(417 -7162)"><circle cx="6" cy="6" r="6" transform="translate(327 7414)" fill="#f7f7f7"/></g><g transform="translate(441 -7162)"><circle cx="6" cy="6" r="6" transform="translate(327 7414)" fill="#f7f7f7"/></g><g transform="translate(465 -7162)"><circle cx="6" cy="6" r="6" transform="translate(327 7414)" fill="#f7f7f7"/></g><g transform="translate(489 -7162)"><circle cx="6" cy="6" r="6" transform="translate(327 7414)" fill="#f7f7f7"/></g><g transform="translate(513 -7162)"><circle cx="6" cy="6" r="6" transform="translate(327 7414)" fill="#f7f7f7"/></g><g transform="translate(537 -7162)"><circle cx="6" cy="6" r="6" transform="translate(327 7414)" fill="#f7f7f7"/></g><g transform="translate(561 -7162)"><circle cx="6" cy="6" r="6" transform="translate(327 7414)" fill="#f7f7f7"/></g><g transform="translate(585 -7162)"><circle cx="6" cy="6" r="6" transform="translate(327 7414)" fill="#f7f7f7"/></g><g transform="translate(609 -7162)"><circle cx="6" cy="6" r="6" transform="translate(327 7414)" fill="#f7f7f7"/></g><g transform="translate(633 -7162)"><circle cx="6" cy="6" r="6" transform="translate(327 7414)" fill="#f7f7f7"/></g><g transform="translate(657 -7162)"><circle cx="6" cy="6" r="6" transform="translate(327 7414)" fill="#f7f7f7"/></g><g transform="translate(681 -7162)"><circle cx="6" cy="6" r="6" transform="translate(327 7414)" fill="#f7f7f7"/></g></g></svg>