<svg xmlns="http://www.w3.org/2000/svg" width="30" height="30" viewBox="0 0 30 30"><path d="M15,0A15,15,0,1,1,0,15,15,15,0,0,1,15,0Z" fill="#fff"/><path d="M18.846,16.436c-.119,0-.239.008-.358.008a7.252,7.252,0,0,1-5.216-2.2,7.494,7.494,0,0,1-2.16-5.3,7.588,7.588,0,0,1,.72-3.237,10.722,10.722,0,0,1,.559-.963.162.162,0,0,0-.16-.251,7.956,7.956,0,0,0,1.213,15.8,7.755,7.755,0,0,0,5.961-2.8,7.514,7.514,0,0,0,.675-.9.166.166,0,0,0-.169-.251A7.025,7.025,0,0,1,18.846,16.436Z" transform="translate(1.985 2.605)" fill="#31363a"/></svg>