<svg xmlns="http://www.w3.org/2000/svg" xmlns:xlink="http://www.w3.org/1999/xlink" width="58.5" height="54" viewBox="0 0 58.5 54"><defs><filter id="a" x="0" y="0" width="58.5" height="54" filterUnits="userSpaceOnUse"><feOffset dy="3" input="SourceAlpha"/><feGaussianBlur stdDeviation="3" result="b"/><feFlood flood-opacity="0.161"/><feComposite operator="in" in2="b"/><feComposite in="SourceGraphic"/></filter></defs><g transform="matrix(1, 0, 0, 1, 0, 0)" filter="url(#a)"><path d="M40.17,13.636l-1.591-1.591a1.125,1.125,0,0,0-1.591,0l-.8.8-2.032-2.032a4.481,4.481,0,0,0-1.15-4.332L29.829,3.295a11.251,11.251,0,0,0-15.91,0l6.364,3.182V7.795A4.5,4.5,0,0,0,21.6,10.976l3.455,3.455a4.481,4.481,0,0,0,4.332,1.15l2.032,2.032-.8.8a1.125,1.125,0,0,0,0,1.591l1.591,1.591a1.125,1.125,0,0,0,1.591,0l6.364-6.364a1.125,1.125,0,0,0,0-1.59ZM20.01,12.568a6.824,6.824,0,0,1-.693-.84L1.381,28.474a4.348,4.348,0,1,0,6.145,6.145L24.27,16.684a6.836,6.836,0,0,1-.8-.662L20.01,12.568Z" transform="translate(9 6)" fill="#ecfffb"/></g></svg>